<svg id="Layer_1" data-name="Layer 1" xmlns="http://www.w3.org/2000/svg" xmlns:xlink="http://www.w3.org/1999/xlink" viewBox="0 0 1755.8 2957"><defs><style>.cls-1,.cls-10,.cls-11,.cls-12{fill:none;}.cls-2{clip-path:url(#clip-path);}.cls-3{fill:#bbc6d8;}.cls-4{fill:#10102b;}.cls-5{fill:#fff;}.cls-6{opacity:0.46;}.cls-7{clip-path:url(#clip-path-3);}.cls-8{opacity:0.49;}.cls-9{clip-path:url(#clip-path-5);}.cls-10,.cls-11{stroke:#10102b;}.cls-10,.cls-11,.cls-12{stroke-width:1.03px;}.cls-11{stroke-dasharray:3.02 3.02;}.cls-12{stroke:#fff;}</style><clipPath id="clip-path" transform="translate(115.2)"><rect class="cls-1" width="1440" height="2880"/></clipPath><clipPath id="clip-path-3" transform="translate(115.2)"><rect class="cls-1" x="633.1" y="1509.28" width="1008.5" height="1420.72"/></clipPath><clipPath id="clip-path-5" transform="translate(115.2)"><rect class="cls-1" x="85.93" y="410.6" width="1123.17" height="3.03"/></clipPath></defs><title>typeAnatomyPoster</title><g class="cls-2"><rect class="cls-3" x="115.2" width="1440" height="2880"/><g class="cls-2"><path class="cls-4" d="M633.67,2407.37v68.71q0,55-16,111.07A288.86,288.86,0,0,1,565,2689.06q-36.66,45.83-96.19,74.43T324.5,2792.11q-107.67,0-170.61-41.22t-63-135.12q0-64.08,40.08-105.34t103-64.13q63-22.86,139.7-30.91a1446.54,1446.54,0,0,1,150-8ZM65.72,2105.08q27.48-20.62,57.25-43.52a357.4,357.4,0,0,1,66.42-40.07q36.6-17.17,81.3-28.63t104.2-11.45q66.39,0,114.5,19.47t80.16,52.67A223.15,223.15,0,0,1,617.64,2128q16,41.22,16,82.44v45.8H482.52q-123.66,0-232.45,19.47T60,2339.81q-81.31,44.66-128.24,115.65T-115.2,2631.8q0,80.19,29.77,140.85t81.3,101.91q51.53,41.22,120.23,61.83T260.38,2957q123.66,0,217.56-43.51t162.6-148.86h4.58q0,82.44,6.87,164.89H835.2q-4.62-43.48-6.87-91.61T826,2732.57V2178.36A361.18,361.18,0,0,0,799.7,2042.1q-26.36-65.28-81.3-115.65t-140.84-80.16q-85.87-29.73-205-29.77-114.55,0-229,40.08T-57.95,1976.83Z" transform="translate(115.2)"/><path class="cls-5" d="M1303.88,2682h21.78v-91.48a78.59,78.59,0,0,1,3.26-23.05,52.4,52.4,0,0,1,10-18.69,45.94,45.94,0,0,1,17.06-12.52q10.33-4.55,24.5-4.54a26.65,26.65,0,0,1,8.35,1.45l2.54-21.42q-3.27-.72-6.35-1.27a36.88,36.88,0,0,0-6.36-.54q-18.87,0-31.94,9.44a74.49,74.49,0,0,0-21.42,24.32c-.48-1.69-.79-5.45-.9-11.26s-.31-11.85-.55-18.15h-21.78q0,3.27.36,9.26t.55,12.89q.18,6.9.54,13.61c.24,4.48.37,8.29.37,11.43Zm-84.22-222.52a16.65,16.65,0,1,0-4.72-11.62,15.78,15.78,0,0,0,4.72,11.62m.73,222.52h21.78V2514.29h-21.78Zm-205.46,0h21.78v-83.85q0-17.43,4.54-30.31a61.41,61.41,0,0,1,12.34-21.42,48.94,48.94,0,0,1,18.51-12.71,62,62,0,0,1,22.69-4.17q13.07,0,21.24,4.54a33.33,33.33,0,0,1,12.7,12.16,52.28,52.28,0,0,1,6.35,17.24,106.55,106.55,0,0,1,1.82,19.78V2682h21.78v-99.82a131.75,131.75,0,0,0-2.72-26.87,60.87,60.87,0,0,0-9.8-23,51.57,51.57,0,0,0-19.42-16.15q-12.35-6.17-32-6.17-20.32,0-35.57,10t-21.78,23.78h-1.09q-.74-2.53-.91-11.26t-.54-18.15h-21.78q0,3.27.36,9.26t.54,12.89q.18,6.9.55,13.61t.36,11.43Zm-189.48-98q0-3.27,2.9-12.16a66.11,66.11,0,0,1,9.8-18.33,64.64,64.64,0,0,1,18.7-16.7q11.79-7.26,29.58-7.26a59.52,59.52,0,0,1,22.69,4.36,58.66,58.66,0,0,1,18.51,11.79A56.49,56.49,0,0,1,940,2562.94a49.4,49.4,0,0,1,4.54,21Zm119.79,53a58.23,58.23,0,0,1-24,21.78,70.16,70.16,0,0,1-32.31,8q-19.25,0-31.4-7.26a63,63,0,0,1-19.42-17.42,62.14,62.14,0,0,1-10-20.87,74.25,74.25,0,0,1-2.72-17.61H966.29v-15.24a84.54,84.54,0,0,0-5.08-28.68,75.33,75.33,0,0,0-15.07-25.23,74.41,74.41,0,0,0-24.68-17.79q-14.7-6.71-33.94-6.71a83,83,0,0,0-33.76,6.71,81.78,81.78,0,0,0-26.5,18.52,83.07,83.07,0,0,0-17.42,27.77,95.75,95.75,0,0,0-6.17,34.84,102.25,102.25,0,0,0,6,35.76,80.47,80.47,0,0,0,17.25,27.95,78.35,78.35,0,0,0,26.86,18.33,89.33,89.33,0,0,0,34.85,6.54,100,100,0,0,0,41.2-8.35q18.69-8.36,31.4-27.59Zm-255.19,45h22.5l66.07-167.71H756.48L702,2658.4l-55.91-144.11H621.44Zm-122.7-84.22V2609a87.39,87.39,0,0,1-2.54,20.87,46.05,46.05,0,0,1-9.25,18.51,48.62,48.62,0,0,1-18,13.25q-11.26,5.09-28.68,5.08a47.5,47.5,0,0,1-13.61-2,41.78,41.78,0,0,1-12.16-5.81,30.18,30.18,0,0,1-8.9-9.8,26.78,26.78,0,0,1-3.44-13.61q0-10.89,6.17-18.15a43.16,43.16,0,0,1,16.51-11.62,93.38,93.38,0,0,1,23.24-6.17,191,191,0,0,1,26.68-1.82ZM587,2570.56q0-31.93-18.15-46.28t-48.65-14.34a106.62,106.62,0,0,0-34.12,6q-17.79,6-29.76,17.6l12.7,14.89a76.57,76.57,0,0,1,51.18-18.88q20.33,0,33.76,9.44t13.43,31.22v10.16H541.94q-12.35,0-28.49,1.63a114.6,114.6,0,0,0-30.49,7.26,61.16,61.16,0,0,0-24.14,16.88q-9.81,11.26-9.8,30.49,0,13.44,5.26,22.87a46.49,46.49,0,0,0,13.61,15.43,56.18,56.18,0,0,0,18.88,8.71,85,85,0,0,0,21.42,2.73q21.41,0,35.39-7.63t23.41-24h.73A156.27,156.27,0,0,0,569.9,2682h20.32q-1.08-7.26-1.63-14.52t-.91-15.61q-.36-8.34-.54-18.15t-.18-22.14Z" transform="translate(115.2)"/><g class="cls-6"><g class="cls-7"><path class="cls-5" d="M826.19,1678.61h252.13a686.26,686.26,0,0,1,111.06,9q55,9,98,33.07t69,69.13q26,45.09,26,117.22t-26,117.23q-26,45.09-69,69.13t-98,33.06a686.27,686.27,0,0,1-111.06,9H826.19ZM634.1,2929H826.19V2303.8H1040.3L1400.48,2929H1640.6l-402.2-647.24q80-8,145.07-43.08t110.06-86.17a371,371,0,0,0,69-114.22,366,366,0,0,0,24-131.25q0-66.12-20-137.26t-71-128.24q-51-57.12-139.07-94.19t-224.11-37.07H634.1Z" transform="translate(115.2)"/></g></g><path class="cls-4" d="M1340.22,2751.53a8,8,0,0,0,3.44,2.81,11.35,11.35,0,0,0,4.38.83,9.14,9.14,0,0,0,2.82-.44,7,7,0,0,0,2.4-1.31,6.39,6.39,0,0,0,1.65-2.12,6.53,6.53,0,0,0,.61-2.89,5.94,5.94,0,0,0-.92-3.52,6.35,6.35,0,0,0-2.29-2,14.24,14.24,0,0,0-3-1.14,22.93,22.93,0,0,1-3-1,6.4,6.4,0,0,1-2.29-1.53,3.87,3.87,0,0,1-.92-2.77,4.12,4.12,0,0,1,1.62-3.42,5.16,5.16,0,0,1,1.71-.84,7.11,7.11,0,0,1,2.08-.29,5.84,5.84,0,0,1,2.7.59,5.7,5.7,0,0,1,2,1.79l1.94-1.4a7,7,0,0,0-2.91-2.33,9.54,9.54,0,0,0-3.66-.69,10.06,10.06,0,0,0-2.92.42,7.54,7.54,0,0,0-2.46,1.26,6.1,6.1,0,0,0-1.7,2.07,6.21,6.21,0,0,0-.63,2.84,6.9,6.9,0,0,0,.52,2.86,5.53,5.53,0,0,0,1.42,1.92,7.6,7.6,0,0,0,2,1.24c.74.32,1.5.6,2.28.85l2.28.75a10.41,10.41,0,0,1,2,.9,4.22,4.22,0,0,1,1.41,1.34,3.8,3.8,0,0,1,.53,2.08,4.3,4.3,0,0,1-.43,2,4.51,4.51,0,0,1-1.15,1.48,5.22,5.22,0,0,1-1.72.95,6.35,6.35,0,0,1-2.11.34,6.73,6.73,0,0,1-3.21-.75,5.7,5.7,0,0,1-2.3-2.27Zm-35.16,3h2.25v-21.08h.07l14.65,21.08h2.89v-24.07h-2.24v21.08h-.07L1308,2730.49h-2.89Zm-19.61-8.43h-11l5.61-13.19Zm-17,8.43h2.34l2.72-6.39h12.75l2.62,6.39h2.52l-10.13-24.07H1279Zm-27.48-3a8.08,8.08,0,0,0,3.44,2.81,11.44,11.44,0,0,0,4.39.83,9.24,9.24,0,0,0,2.82-.44,7,7,0,0,0,2.39-1.31,6.14,6.14,0,0,0,1.65-2.12,6.53,6.53,0,0,0,.62-2.89,5.94,5.94,0,0,0-.92-3.52,6.47,6.47,0,0,0-2.3-2,14,14,0,0,0-3-1.14,22.78,22.78,0,0,1-3-1,6.44,6.44,0,0,1-2.3-1.53,3.87,3.87,0,0,1-.92-2.77,4.2,4.2,0,0,1,1.62-3.42,5.21,5.21,0,0,1,1.72-.84,7,7,0,0,1,2.07-.29,5.84,5.84,0,0,1,2.7.59,5.61,5.61,0,0,1,2,1.79l1.94-1.4a7,7,0,0,0-2.91-2.33,9.53,9.53,0,0,0-3.65-.69,10,10,0,0,0-2.92.42,7.59,7.59,0,0,0-2.47,1.26,6,6,0,0,0-2.33,4.91,6.89,6.89,0,0,0,.53,2.86,5.51,5.51,0,0,0,1.41,1.92,7.66,7.66,0,0,0,2,1.24,23.78,23.78,0,0,0,2.28.85l2.27.75a10.41,10.41,0,0,1,2,.9,4.22,4.22,0,0,1,1.41,1.34,3.8,3.8,0,0,1,.53,2.08,4.43,4.43,0,0,1-.42,2,4.54,4.54,0,0,1-1.16,1.48,5.22,5.22,0,0,1-1.72.95,6.31,6.31,0,0,1-2.11.34,6.73,6.73,0,0,1-3.21-.75,5.68,5.68,0,0,1-2.29-2.27Zm-33.69-2.14a7.35,7.35,0,0,1-1.49,1.68,9,9,0,0,1-1.79,1.16,8.79,8.79,0,0,1-3.82.9,10.65,10.65,0,0,1-4.24-.81,9.59,9.59,0,0,1-3.21-2.25,10,10,0,0,1-2-3.36,12.69,12.69,0,0,1,0-8.37,10,10,0,0,1,2-3.36,9.45,9.45,0,0,1,3.21-2.25,10.65,10.65,0,0,1,4.24-.81,8.72,8.72,0,0,1,3.58.78,6.68,6.68,0,0,1,2.88,2.48l1.83-1.53a9,9,0,0,0-3.72-2.91,12,12,0,0,0-4.57-.86,12.94,12.94,0,0,0-5,.95,11.55,11.55,0,0,0-3.93,2.63,12.11,12.11,0,0,0-2.55,4,13.64,13.64,0,0,0-.92,5.06,13.83,13.83,0,0,0,.92,5.09,12,12,0,0,0,2.55,4,11.53,11.53,0,0,0,3.93,2.62,13.31,13.31,0,0,0,5,.93,12,12,0,0,0,4.93-1,10.3,10.3,0,0,0,4-3.36Zm-37,5.17h2.24v-24.07h-2.24Zm-30.37,0h2.25v-11.42h4.18l6.77,11.42h2.55l-7-11.56a12.59,12.59,0,0,0,2.08-.48,6.24,6.24,0,0,0,2-1,5.39,5.39,0,0,0,1.5-1.82,6,6,0,0,0,.6-2.86,6.23,6.23,0,0,0-.51-2.65,5.52,5.52,0,0,0-3.06-2.89,10.68,10.68,0,0,0-1.94-.54,12.09,12.09,0,0,0-1.77-.21l-1.29,0h-6.33Zm2.25-22h4.76a7.9,7.9,0,0,1,2.87.44,4.72,4.72,0,0,1,1.72,1.09,3.42,3.42,0,0,1,.83,1.39,4.31,4.31,0,0,1,0,2.72,3.45,3.45,0,0,1-.83,1.4,4.7,4.7,0,0,1-1.72,1.08,7.67,7.67,0,0,1-2.87.45h-4.76Zm-26.62,22h2.24v-22H1126v-2h-18.7v2h8.23Zm-35.7,0h15.26v-2h-13v-9.38h11.7v-2h-11.7v-8.57h12.48v-2h-14.72Zm-40.67,0h2.25v-21.22h.06l9.32,21.22h1l9.18-21.22h.07v21.22h2.24v-24.07h-3.2l-8.77,20.19-8.77-20.19h-3.37Zm-36.92-16.22a10,10,0,0,1,2-3.36,9.35,9.35,0,0,1,3.21-2.25,11.48,11.48,0,0,1,8.47,0,9.35,9.35,0,0,1,3.21,2.25,10,10,0,0,1,2,3.36,12.69,12.69,0,0,1,0,8.37,10,10,0,0,1-2,3.36,9.49,9.49,0,0,1-3.21,2.25,11.48,11.48,0,0,1-8.47,0,9.49,9.49,0,0,1-3.21-2.25,10,10,0,0,1-2-3.36,12.69,12.69,0,0,1,0-8.37m-2,9.27a12,12,0,0,0,2.55,4,11.53,11.53,0,0,0,3.93,2.62,14.15,14.15,0,0,0,10.09,0,11.53,11.53,0,0,0,3.93-2.62,12,12,0,0,0,2.55-4,13.83,13.83,0,0,0,.92-5.09,13.64,13.64,0,0,0-.92-5.06,12.11,12.11,0,0,0-2.55-4,11.55,11.55,0,0,0-3.93-2.63,13.87,13.87,0,0,0-10.09,0,11.55,11.55,0,0,0-3.93,2.63,12.11,12.11,0,0,0-2.55,4,13.64,13.64,0,0,0-.92,5.06,13.83,13.83,0,0,0,.92,5.09m-29.72,6.95h15.27v-2h-13v-9.38h11.69v-2H972.72v-8.57H985.2v-2H970.47Zm-16.79-13h-8v2h5.78v8.09a9.37,9.37,0,0,1-3.09,1.13,21,21,0,0,1-3.64.3,10.64,10.64,0,0,1-4.23-.81,9.49,9.49,0,0,1-3.21-2.25,9.72,9.72,0,0,1-2-3.36,12.52,12.52,0,0,1,0-8.37,9.72,9.72,0,0,1,2-3.36,9.35,9.35,0,0,1,3.21-2.25,10.64,10.64,0,0,1,4.23-.81,9.3,9.3,0,0,1,2,.22,11.34,11.34,0,0,1,1.95.61,9.4,9.4,0,0,1,1.74.95,6.88,6.88,0,0,1,1.34,1.21l1.63-1.7a11.67,11.67,0,0,0-8.67-3.33,13,13,0,0,0-5.05.95,11.42,11.42,0,0,0-3.92,2.63,12.11,12.11,0,0,0-2.55,4,13.44,13.44,0,0,0-.92,5.06,13.63,13.63,0,0,0,.92,5.09,12,12,0,0,0,2.55,4,11.39,11.39,0,0,0,3.92,2.62,13.35,13.35,0,0,0,5.05.93,21.48,21.48,0,0,0,4.61-.49,15.79,15.79,0,0,0,4.37-1.68Zm-66,4.13a5,5,0,0,1,1.11-1.66,4.66,4.66,0,0,1,1.64-1.07,5.56,5.56,0,0,1,2-.38,5.48,5.48,0,0,1,2,.38,4.62,4.62,0,0,1,1.65,1.07,5,5,0,0,1,1.11,1.66,5.58,5.58,0,0,1,.41,2.16,5.48,5.48,0,0,1-.38,2,5.14,5.14,0,0,1-1,1.67,5.26,5.26,0,0,1-7.55,0,5.14,5.14,0,0,1-1-1.67,5.48,5.48,0,0,1-.38-2,5.58,5.58,0,0,1,.41-2.16m1.68-12.58a4.36,4.36,0,0,1,7.47,3.22,4.61,4.61,0,0,1-1.21,3.11,4.19,4.19,0,0,1-1.38,1,4.37,4.37,0,0,1-4.91-1,4.4,4.4,0,0,1-.89-1.4,4.6,4.6,0,0,1-.32-1.71,4.32,4.32,0,0,1,1.24-3.22m-3.21,4.9a6.13,6.13,0,0,0,.77,1.56,5.21,5.21,0,0,0,1.2,1.28,4.68,4.68,0,0,0,1.6.78v0a5.4,5.4,0,0,0-2,.84,5.64,5.64,0,0,0-1.46,1.42,6.45,6.45,0,0,0-.91,1.84,7.75,7.75,0,0,0,.26,5,6.36,6.36,0,0,0,1.56,2.23,7.26,7.26,0,0,0,2.37,1.43,8.82,8.82,0,0,0,5.91,0,7.26,7.26,0,0,0,2.37-1.43,6.36,6.36,0,0,0,1.56-2.23,7.44,7.44,0,0,0,.56-2.94,7,7,0,0,0-.31-2.09,6.18,6.18,0,0,0-.9-1.84,5.64,5.64,0,0,0-1.46-1.42,5.47,5.47,0,0,0-2-.84v0a4.68,4.68,0,0,0,1.6-.78,5.41,5.41,0,0,0,1.2-1.28,6.13,6.13,0,0,0,.77-1.56,5.46,5.46,0,0,0,.27-1.68,6.24,6.24,0,0,0-.51-2.55,6,6,0,0,0-1.39-2,6.52,6.52,0,0,0-2.1-1.27,7.15,7.15,0,0,0-2.6-.46,7.22,7.22,0,0,0-2.6.46,6.58,6.58,0,0,0-2.09,1.27,6,6,0,0,0-1.39,2,6.24,6.24,0,0,0-.51,2.55,5.46,5.46,0,0,0,.27,1.68m-26.35,7.68a5,5,0,0,1,1.11-1.66,4.62,4.62,0,0,1,1.65-1.07,5.64,5.64,0,0,1,4.07,0,4.62,4.62,0,0,1,1.65,1.07,5,5,0,0,1,1.11,1.66,5.58,5.58,0,0,1,.41,2.16,5.48,5.48,0,0,1-.38,2,5.14,5.14,0,0,1-1,1.67,5.26,5.26,0,0,1-7.55,0,5.14,5.14,0,0,1-1-1.67,5.48,5.48,0,0,1-.38-2,5.58,5.58,0,0,1,.41-2.16m1.68-12.58a4.36,4.36,0,0,1,7.47,3.22,4.61,4.61,0,0,1-1.21,3.11,4.19,4.19,0,0,1-1.38,1,4.37,4.37,0,0,1-4.91-1,4.61,4.61,0,0,1-1.21-3.11,4.32,4.32,0,0,1,1.24-3.22m-3.21,4.9a6.13,6.13,0,0,0,.77,1.56,5.21,5.21,0,0,0,1.2,1.28,4.68,4.68,0,0,0,1.6.78v0a5.47,5.47,0,0,0-2,.84,5.64,5.64,0,0,0-1.46,1.42,6.45,6.45,0,0,0-.91,1.84,7.28,7.28,0,0,0-.3,2.09,7.44,7.44,0,0,0,.56,2.94,6.36,6.36,0,0,0,1.56,2.23,7.26,7.26,0,0,0,2.37,1.43,8.82,8.82,0,0,0,5.91,0,7.26,7.26,0,0,0,2.37-1.43,6.36,6.36,0,0,0,1.56-2.23,7.44,7.44,0,0,0,.56-2.94,7.28,7.28,0,0,0-.3-2.09,6.45,6.45,0,0,0-.91-1.84,5.64,5.64,0,0,0-1.46-1.42,5.47,5.47,0,0,0-2-.84v0a4.68,4.68,0,0,0,1.6-.78,5.41,5.41,0,0,0,1.2-1.28,6.13,6.13,0,0,0,.77-1.56,5.46,5.46,0,0,0,.27-1.68,6.24,6.24,0,0,0-.51-2.55,6,6,0,0,0-1.39-2,6.58,6.58,0,0,0-2.09-1.27,7.61,7.61,0,0,0-5.21,0,6.58,6.58,0,0,0-2.09,1.27,6,6,0,0,0-1.39,2,6.24,6.24,0,0,0-.51,2.55,5.46,5.46,0,0,0,.27,1.68m-23.77,4.74a5.46,5.46,0,0,1-1.78-1.21,5.79,5.79,0,0,1-1.21-1.78,5.59,5.59,0,0,1-.44-2.21,6.31,6.31,0,0,1,.41-2.3,5.25,5.25,0,0,1,1.15-1.78,5.32,5.32,0,0,1,1.79-1.16,6.78,6.78,0,0,1,4.59,0,5.32,5.32,0,0,1,1.79,1.16,5.25,5.25,0,0,1,1.15,1.78,6.31,6.31,0,0,1,.41,2.3,5.59,5.59,0,0,1-.44,2.21,5.79,5.79,0,0,1-1.21,1.78,5.7,5.7,0,0,1-6.21,1.21m-1.22,11.8h2.59l6.52-10.85.73-1.29a16.15,16.15,0,0,0,.74-1.44,10.26,10.26,0,0,0,.54-1.62,7.41,7.41,0,0,0,.2-1.8,7.62,7.62,0,0,0-.59-3,7.07,7.07,0,0,0-1.65-2.36,7.59,7.59,0,0,0-2.5-1.55,9.11,9.11,0,0,0-6.29,0,7.59,7.59,0,0,0-2.5,1.55,7.07,7.07,0,0,0-1.65,2.36,7.45,7.45,0,0,0-.59,3,7.76,7.76,0,0,0,.54,2.91,7,7,0,0,0,1.53,2.34,7.1,7.1,0,0,0,2.35,1.58,7.36,7.36,0,0,0,2.95.58,8.18,8.18,0,0,0,1.93-.25,4,4,0,0,0,1.64-.77h.07Zm-24.41,0h2v-24.07h-1.73l-5.95,4.86,1.25,1.56,4.36-3.57h0Zm-24.1,8.75h1.68v-35h-1.68Z" transform="translate(115.2)"/><path class="cls-5" d="M756.5,2734.4h3.57a11,11,0,0,1,1.5.11,4.39,4.39,0,0,1,1.37.4,2.6,2.6,0,0,1,1,.86,2.64,2.64,0,0,1,.38,1.5,2.54,2.54,0,0,1-.44,1.58,2.64,2.64,0,0,1-1.1.82,4.86,4.86,0,0,1-1.49.31c-.55,0-1.06.06-1.55.06H756.5ZM751,2754.56h5.46v-9.9h2.69l5.18,9.9h6.55l-6.3-10.46a6.18,6.18,0,0,0,4-2.33,7.27,7.27,0,0,0,1.36-4.46,7.87,7.87,0,0,0-.75-3.63,6.23,6.23,0,0,0-2-2.31,8.47,8.47,0,0,0-3-1.22,16.52,16.52,0,0,0-3.58-.37H751Zm-32.34,0h17.46v-5h-12v-5H734.9v-5H724.16v-4.62h11.37v-5H718.7Zm-15.51-14.7H693.5v5h4.44v4a11.7,11.7,0,0,1-2.06.82,10.42,10.42,0,0,1-3.08.4,8.21,8.21,0,0,1-3.17-.59,6.94,6.94,0,0,1-2.43-1.67,7.24,7.24,0,0,1-1.56-2.52,9.69,9.69,0,0,1,0-6.38,7.23,7.23,0,0,1,1.56-2.54,6.92,6.92,0,0,1,2.43-1.66,8,8,0,0,1,3.17-.6,8.94,8.94,0,0,1,3.5.6,7.64,7.64,0,0,1,2.52,1.75l3.85-4.2a10.73,10.73,0,0,0-4.4-2.47,19.67,19.67,0,0,0-5.47-.72,15.23,15.23,0,0,0-5.36.91,12.35,12.35,0,0,0-4.23,2.61,11.88,11.88,0,0,0-2.79,4.11,15.17,15.17,0,0,0,0,10.78,11.88,11.88,0,0,0,2.79,4.11,12.2,12.2,0,0,0,4.23,2.61,15.23,15.23,0,0,0,5.36.91,25.77,25.77,0,0,0,5.35-.56,19.64,19.64,0,0,0,5-1.82Zm-43.36,14.7h5.46v-24.78h-5.46Zm-25.73,0h5.46v-19.95h7.07v-4.83H627v4.83h7.07Zm-20.33-24.78h-5.46v15a6.11,6.11,0,0,1-.37,2.13,5.13,5.13,0,0,1-1,1.7,4.79,4.79,0,0,1-1.58,1.12,4.85,4.85,0,0,1-2,.4,4.91,4.91,0,0,1-2-.4,4.67,4.67,0,0,1-1.6-1.12,5.3,5.3,0,0,1-1-1.7,6.11,6.11,0,0,1-.37-2.13v-15h-5.46V2745a11.8,11.8,0,0,0,.67,4.06,8.76,8.76,0,0,0,5.25,5.35,13.71,13.71,0,0,0,9.06,0,8.76,8.76,0,0,0,5.25-5.35,12,12,0,0,0,.67-4.06Zm-48.62,4.62h3.57a11.31,11.31,0,0,1,1.51.11,4.25,4.25,0,0,1,1.36.4,2.46,2.46,0,0,1,1,.86,2.57,2.57,0,0,1,.39,1.5,2.54,2.54,0,0,1-.44,1.58,2.64,2.64,0,0,1-1.1.82,4.93,4.93,0,0,1-1.49.31q-.82.06-1.56.06h-3.22Zm-5.46,20.16h5.46v-9.9h2.7l5.18,9.9h6.54l-6.3-10.46a6.18,6.18,0,0,0,4-2.33,7.28,7.28,0,0,0,1.37-4.46,7.87,7.87,0,0,0-.75-3.63,6.26,6.26,0,0,0-2-2.31,8.42,8.42,0,0,0-3-1.22,16.61,16.61,0,0,0-3.59-.37h-9.59Zm-31,0h5.46v-9.66h10.32v-5H534.11v-5h11.16v-5H528.65Zm-60.8,0h5.46v-17.64h.07l10.82,17.64h7.14v-24.78h-5.46V2747h-.07l-10.54-17.22h-7.42Zm-23.13-9.87h-6.06l3-7.7Zm-15.86,9.87h6l2.07-5.25h9.62l2.14,5.25h6.16l-10.78-24.78h-4.52Zm-18.37,0H416v-24.78h-5.46Zm-27.65-20.16h3.57a11,11,0,0,1,1.5.11,4.31,4.31,0,0,1,1.37.4,2.53,2.53,0,0,1,1,.86,2.57,2.57,0,0,1,.38,1.5,2.54,2.54,0,0,1-.43,1.58,2.61,2.61,0,0,1-1.11.82,4.8,4.8,0,0,1-1.48.31q-.83.06-1.56.06h-3.22Zm-5.46,20.16h5.46v-9.9h2.69l5.18,9.9h6.55L391,2744.1a6.18,6.18,0,0,0,4-2.33,7.27,7.27,0,0,0,1.36-4.46,7.87,7.87,0,0,0-.75-3.63,6.23,6.23,0,0,0-2-2.31,8.42,8.42,0,0,0-3-1.22,16.68,16.68,0,0,0-3.59-.37h-9.59Zm-31.61-19.74H349a12.14,12.14,0,0,1,3.28.44,8.13,8.13,0,0,1,2.71,1.31,6.43,6.43,0,0,1,1.84,2.22,7,7,0,0,1,.68,3.17,8.36,8.36,0,0,1-.68,3.55,6.24,6.24,0,0,1-1.87,2.35,7.75,7.75,0,0,1-2.82,1.28,15.7,15.7,0,0,1-3.52.38h-2.84Zm-5.45,19.74h8.92a17.4,17.4,0,0,0,5.28-.8,13.58,13.58,0,0,0,4.45-2.37,11.36,11.36,0,0,0,3.06-3.85,11.72,11.72,0,0,0,1.14-5.3,13,13,0,0,0-1.17-5.77,10.6,10.6,0,0,0-3.17-3.87,12.93,12.93,0,0,0-4.67-2.15,23.08,23.08,0,0,0-5.65-.67h-8.19Zm-23.14-9.87h-6.06l3-7.7Zm-15.85,9.87h6l2.06-5.25H319l2.13,5.25h6.16l-10.78-24.78H312Z" transform="translate(115.2)"/><path class="cls-5" d="M1001.3,1196.17a3.35,3.35,0,0,0,1.86-1.86,3.61,3.61,0,0,0,0-2.74,3.35,3.35,0,0,0-1.86-1.86,3.61,3.61,0,0,0-2.74,0,3.42,3.42,0,0,0-1.12.74,3.58,3.58,0,0,0-.74,1.12,3.74,3.74,0,0,0,0,2.74,3.58,3.58,0,0,0,.74,1.12,3.42,3.42,0,0,0,1.12.74,3.61,3.61,0,0,0,2.74,0m-7-.38v-5.7h-1.1a3,3,0,0,1-1.3-.3,4.1,4.1,0,0,1-1.33-1.18,23.49,23.49,0,0,0-2-2.26,10.56,10.56,0,0,0-1.77-1.45,6.56,6.56,0,0,0-1.77-.78,8.14,8.14,0,0,0-2-.22,7.24,7.24,0,0,0-3.23.68,7,7,0,0,0-2.36,1.86,8,8,0,0,0-1.42,2.72,11,11,0,0,0-.48,3.29,9.91,9.91,0,0,0,2.11,6.53,8.76,8.76,0,0,0,6.14,3l.38-5.86a3.82,3.82,0,0,1-2.4-1,3.59,3.59,0,0,1-1-2.72,2.78,2.78,0,0,1,.7-1.95,2.5,2.5,0,0,1,2-.78,2.31,2.31,0,0,1,1.23.36,7.71,7.71,0,0,1,1.26,1c.44.44.91,1,1.42,1.54s1.1,1.25,1.79,2a4.1,4.1,0,0,0,1.48,1,5.53,5.53,0,0,0,1.94.3Zm9.57,35.19,1.33-4.3-29.6-11.4-1.33,4.34Zm-2.58,20.14a3.58,3.58,0,0,0,1.12-.74,3.42,3.42,0,0,0,.74-1.12,3.61,3.61,0,0,0,0-2.74,3.35,3.35,0,0,0-1.86-1.86,3.61,3.61,0,0,0-2.74,0,3.42,3.42,0,0,0-1.12.74,3.58,3.58,0,0,0-.74,1.12,3.74,3.74,0,0,0,0,2.74,3.35,3.35,0,0,0,1.86,1.86,3.74,3.74,0,0,0,2.74,0m.3,36.06L994.08,1268h-4.79l-7.52,19.23h5.17l4.71-12h.07l4.72,12Zm-19.83,17.48,7.52,19.23h4.79l7.52-19.23h-5.16l-4.72,12h-.07l-4.71-12Zm26,44.27v-4.87L997,1340.64v5.48Zm-31.46,21.85v5.47l10.71,2.81v-4.86Zm0-8.13v5.47l10.71,2.81v-4.86Zm0,31v5.47L987,1401.9V1397Zm12.84,30a3.34,3.34,0,0,0,1.12-.75,3.18,3.18,0,0,0,.74-1.12,3.59,3.59,0,0,0,0-2.73,3.35,3.35,0,0,0-1.86-1.86,3.61,3.61,0,0,0-2.74,0,3.27,3.27,0,0,0-1.12.74,3.51,3.51,0,0,0,1.12,5.72,3.74,3.74,0,0,0,2.74,0m12.16,0a3.44,3.44,0,0,0,1.12-.75,3.32,3.32,0,0,0,.74-1.12,3.59,3.59,0,0,0,0-2.73,3.32,3.32,0,0,0-.74-1.12,3.27,3.27,0,0,0-1.12-.74,3.61,3.61,0,0,0-2.74,0,3.27,3.27,0,0,0-1.12.74,3.51,3.51,0,0,0,1.12,5.72,3.74,3.74,0,0,0,2.74,0m-12.16,22.64a3.35,3.35,0,0,0,1.86-1.86,3.52,3.52,0,0,0,.27-1.37,3.56,3.56,0,0,0-.27-1.37,3.27,3.27,0,0,0-.74-1.12,3.47,3.47,0,0,0-1.12-.74,3.74,3.74,0,0,0-2.74,0,3.43,3.43,0,0,0-2.12,3.23,3.52,3.52,0,0,0,.26,1.37,3.47,3.47,0,0,0,.74,1.12,3.27,3.27,0,0,0,1.12.74,3.61,3.61,0,0,0,2.74,0m18.62,1.75v-4.86L997,1439.75v5.47Zm-33.06,18.66h38v-4.79h-38Zm29.18,13.11-29.6,11.36,1.33,4.33,29.6-11.4Zm-24.16,40.51v-1.87a3.35,3.35,0,0,1,.22-1.36,1.68,1.68,0,0,1,1.39-1,6.09,6.09,0,0,1,.82-.06h6.15a4.62,4.62,0,0,0,2.09-.38,3,3,0,0,0,1.16-.93,2.84,2.84,0,0,0,.52-1.21c.07-.45.12-.87.15-1.28h.07c.05.41.12.83.19,1.28a2.84,2.84,0,0,0,.52,1.21,3,3,0,0,0,1.16.93,4.62,4.62,0,0,0,2.09.38h6.11a6,6,0,0,1,.82.06,1.9,1.9,0,0,1,.8.3,1.82,1.82,0,0,1,.59.75,3.33,3.33,0,0,1,.23,1.36v1.87h4.33v-4a5.84,5.84,0,0,0-.31-2,3.71,3.71,0,0,0-1-1.54,4.83,4.83,0,0,0-1.7-1,7.53,7.53,0,0,0-2.53-.38H997a2,2,0,0,1-1.4-.49,3.18,3.18,0,0,1-.8-1.16,5,5,0,0,1-.34-1.35,10.66,10.66,0,0,1-.08-1.1h-4.33a8.42,8.42,0,0,1-.08,1.1,5,5,0,0,1-.34,1.35,3.18,3.18,0,0,1-.8,1.16,2,2,0,0,1-1.4.49h-6.54a7.53,7.53,0,0,0-2.53.38,4.9,4.9,0,0,0-1.72,1,3.85,3.85,0,0,0-1,1.54,5.57,5.57,0,0,0-.31,1.82v4.11Zm25.08,12.46v1.86a3.39,3.39,0,0,1-.23,1.37,1.72,1.72,0,0,1-.59.74,1.66,1.66,0,0,1-.8.3,6,6,0,0,1-.82.06h-6.15a4.76,4.76,0,0,0-2.09.38,3.17,3.17,0,0,0-1.16.93,2.79,2.79,0,0,0-.51,1.22,12.24,12.24,0,0,0-.16,1.27h-.07a10.11,10.11,0,0,0-.17-1.27,3.24,3.24,0,0,0-.53-1.22,3.35,3.35,0,0,0-1.16-.93,4.82,4.82,0,0,0-2.09-.38h-6.12a6.09,6.09,0,0,1-.82-.06,1.66,1.66,0,0,1-.8-.3,1.8,1.8,0,0,1-.59-.74,3.4,3.4,0,0,1-.22-1.37v-1.86h-4.34v4a6.15,6.15,0,0,0,.31,2,3.88,3.88,0,0,0,1,1.55,4.28,4.28,0,0,0,1.71,1,7.76,7.76,0,0,0,2.52.36h6.58a1.93,1.93,0,0,1,1.4.51,3.42,3.42,0,0,1,.8,1.2,5.29,5.29,0,0,1,.34,1.37,8.23,8.23,0,0,1,.08,1h4.33c0-.23,0-.57.08-1a5.29,5.29,0,0,1,.34-1.37,3.42,3.42,0,0,1,.8-1.2,1.93,1.93,0,0,1,1.4-.51h6.54a7.29,7.29,0,0,0,2.53-.38,4.87,4.87,0,0,0,1.73-1,4,4,0,0,0,1-1.56,5.77,5.77,0,0,0,.31-1.92v-4Zm4.33,35.42v-8H975.38v8h3.42v-3.42h26.91v3.42Zm-33.75,12.91v8h33.75v-8h-3.42v3.42H978.8v-3.42Zm18.7,45v-8h8v-4.79h-8v-8h-4.79v8h-8V1618h8v8Zm3.65,15.88h-4.79v20.83h4.79Zm-7.3,0h-4.79v20.83h4.79Zm17.52,34.47h-1.9v19h1.9Zm-16.49,40.7H996v-9.35h-4.56Zm17.67,19.57-.15-.08a35.6,35.6,0,0,0-8-4,27.73,27.73,0,0,0-17.52,0,35.39,35.39,0,0,0-8,4l-.16.08,2.28,3.91c1.22-.76,2.39-1.44,3.5-2a24.53,24.53,0,0,1,3.4-1.54,22.28,22.28,0,0,1,3.61-1,24.71,24.71,0,0,1,8.17,0,22.28,22.28,0,0,1,3.61,1,24.53,24.53,0,0,1,3.4,1.54c1.12.61,2.28,1.29,3.5,2Zm-33.75,20.82.16.07a35.39,35.39,0,0,0,8,4,27.55,27.55,0,0,0,17.52,0,35.6,35.6,0,0,0,8-4l.15-.07-2.28-3.91c-1.22.76-2.38,1.44-3.5,2.05a24.53,24.53,0,0,1-3.4,1.54,21.86,21.86,0,0,1-7.69,1.31,23.66,23.66,0,0,1-4.09-.34,23.35,23.35,0,0,1-3.61-1,24.53,24.53,0,0,1-3.4-1.54c-1.11-.61-2.28-1.29-3.5-2.05Zm.92,25.8v3.88h5.24l-1.79,5,3.61,1.22,1.75-5,4.14,3.19,2.32-3.08-4.18-3.08,4.37-3.19-2.32-3.15-4.33,3.15-1.59-5-3.61,1.14,1.63,5Zm20.59,35.8a12.07,12.07,0,0,1,1.41,1.92,4.42,4.42,0,0,1,.57,2.29,3.71,3.71,0,0,1-.25,1.35,3.86,3.86,0,0,1-.66,1.16,3.14,3.14,0,0,1-1,.8,3.06,3.06,0,0,1-1.37.3,3.1,3.1,0,0,1-1.33-.26,3.73,3.73,0,0,1-1-.7,7,7,0,0,1-.79-1c-.24-.37-.48-.74-.71-1.12Zm-16.09,1a2.18,2.18,0,0,1,1.8-.78,2.08,2.08,0,0,1,1.09.31,4.23,4.23,0,0,1,.95.76,6.78,6.78,0,0,1,.79,1q.38.54.63,1c-.2.23-.43.48-.68.74a7,7,0,0,1-.82.73,6.47,6.47,0,0,1-.91.55,2.25,2.25,0,0,1-1,.22,2.31,2.31,0,0,1-1.82-.76,2.64,2.64,0,0,1-.69-1.86,2.9,2.9,0,0,1,.63-1.88m8.53-13.74V1813l3.57,2.62-3.68,3.46a11.9,11.9,0,0,0-1.24-1.92,9.14,9.14,0,0,0-1.59-1.58,7.61,7.61,0,0,0-1.92-1.08,6.12,6.12,0,0,0-2.25-.4,6.25,6.25,0,0,0-2.94.64,6.15,6.15,0,0,0-2,1.73A7.61,7.61,0,0,0,976,1819a10.71,10.71,0,0,0-.4,3,12.92,12.92,0,0,0,.38,3.11,7.93,7.93,0,0,0,1.22,2.7,6.13,6.13,0,0,0,2.13,1.88,6.41,6.41,0,0,0,3.11.7,7.54,7.54,0,0,0,1.79-.2,6.9,6.9,0,0,0,1.52-.61,9.06,9.06,0,0,0,1.37-1l1.36-1.2a9.58,9.58,0,0,0,1.12,2.24,8.68,8.68,0,0,0,1.66,1.81,7.24,7.24,0,0,0,2.11,1.21,6.91,6.91,0,0,0,2.45.44,7.5,7.5,0,0,0,3.53-.8,7.4,7.4,0,0,0,2.53-2.14,9.5,9.5,0,0,0,1.5-3.06,12.66,12.66,0,0,0,.49-3.54,11.57,11.57,0,0,0-.76-4.31,10.25,10.25,0,0,0-2.47-3.59l2.55-2.24v-7.34l-6.35,6Zm.84,61.94V1863l-9-4.26,9-4.22v-5.39L976.3,1856v5.54Zm12.61,40.93,1.64-2.89-27.55-15.69-1.79,3.19ZM986,1907a3.63,3.63,0,0,1,0,5.13,3.73,3.73,0,0,1-5.17,0,3.63,3.63,0,0,1,0-5.13,3.71,3.71,0,0,1,5.17,0m.34,9.46a7.54,7.54,0,0,0,2.39-1.6,7.24,7.24,0,0,0,1.62-2.37,7.55,7.55,0,0,0,0-5.85,7.28,7.28,0,0,0-1.62-2.38,7.69,7.69,0,0,0-2.39-1.59,7.55,7.55,0,0,0-5.85,0,7.85,7.85,0,0,0-2.4,1.59,7.46,7.46,0,0,0,0,10.6,7.7,7.7,0,0,0,2.4,1.6,7.55,7.55,0,0,0,5.85,0m12.43-28.58a3.47,3.47,0,0,1,1.06,2.57,3.43,3.43,0,0,1-1.06,2.56,3.6,3.6,0,0,1-2.63,1,3.54,3.54,0,0,1-2.58-1,3.43,3.43,0,0,1-1.06-2.56,3.47,3.47,0,0,1,1.06-2.57,3.57,3.57,0,0,1,2.58-1,3.64,3.64,0,0,1,2.63,1m.32,9.47a7.86,7.86,0,0,0,2.41-1.6,7.43,7.43,0,0,0,0-10.6,7.86,7.86,0,0,0-2.41-1.6,7.54,7.54,0,0,0-2.95-.59,7.36,7.36,0,0,0-2.92.59,8.06,8.06,0,0,0-2.4,1.6,7.46,7.46,0,0,0,0,10.6,8.06,8.06,0,0,0,2.4,1.6,7.36,7.36,0,0,0,2.92.59,7.54,7.54,0,0,0,2.95-.59m-6.4,41.32.26-.72c.13-.33.26-.65.4-1a3.72,3.72,0,0,1,.49-.8,2.15,2.15,0,0,1,.71-.55,2.26,2.26,0,0,1,1-.21,2.16,2.16,0,0,1,1.13.29,2.84,2.84,0,0,1,.81.74,3.81,3.81,0,0,1,.55,1,9.29,9.29,0,0,1,.33,1.16Zm-6.12,2.51c0,.15-.12.38-.19.68a3.34,3.34,0,0,1-.4.92,2.66,2.66,0,0,1-.78.79,2.37,2.37,0,0,1-1.37.35,2,2,0,0,1-1.78-.84,5.29,5.29,0,0,1-.8-1.9Zm-13.34-2.51v2.51h2.66a12.35,12.35,0,0,0,.84,3.25,10,10,0,0,0,1.67,2.77,7.76,7.76,0,0,0,2.47,1.92,7.13,7.13,0,0,0,3.23.72,6.51,6.51,0,0,0,4.54-1.5,9.67,9.67,0,0,0,2.56-4.39l.84-2.77h6.42a10.34,10.34,0,0,1-.63,3,5.43,5.43,0,0,1-1.72,2.4l4.52,4a10.66,10.66,0,0,0,2.39-4.39,18.66,18.66,0,0,0,.69-5h2.66v-2.51h-2.66a15,15,0,0,0-.8-3.53,9.57,9.57,0,0,0-1.67-2.93,7.66,7.66,0,0,0-2.59-2,8,8,0,0,0-3.53-.73,6.44,6.44,0,0,0-4.39,1.5,8.48,8.48,0,0,0-2.49,4l-1.06,3.65h-6a10.82,10.82,0,0,1,.44-2.39,5.65,5.65,0,0,1,1.16-2.09l-4.45-3.65a10,10,0,0,0-1.86,3.88,18.31,18.31,0,0,0-.53,4.25Zm19,33.56V1976l-4.79-.65v-3.76Zm11.06,9v-3.68l-7.64-1.07v-3.76l7.64,1.07v-3.69l-7.64-1.06v-3.65h-3.42v3.19l-4.79-.65v-3.64h-3.42v3.19l-7.63-1.07v3.69l7.63,1.06v3.77l-7.63-1.07v3.69l7.63,1.06v3.65h3.42V1979l4.79.64v3.65h3.42v-3.19Zm-20.29,22.65v3.57l1.71.31v.07a3.39,3.39,0,0,0-1.67,1.58,5.7,5.7,0,0,0-.5,2.53,6.92,6.92,0,0,0,2.6,5.56,8.89,8.89,0,0,0,2.74,1.5,9.66,9.66,0,0,0,3.21.54,8.23,8.23,0,0,0,2.59-.4,6.12,6.12,0,0,0,2-1.12,5.19,5.19,0,0,0,1.31-1.73,5.1,5.1,0,0,0,.48-2.23,6,6,0,0,0-.65-3,8.77,8.77,0,0,0-1.41-1.9v-.08a2,2,0,0,0,1.41-.72,3.25,3.25,0,0,0,.65-2.28,9.48,9.48,0,0,0-.14-1.42,9.32,9.32,0,0,0-.47-1.79,8.41,8.41,0,0,0-1-1.86,7,7,0,0,0-1.67-1.67,8.89,8.89,0,0,0-2.51-1.22,13,13,0,0,0-8.84.69,12.23,12.23,0,0,0-3.93,3,13.28,13.28,0,0,0-2.41,4.32,15.39,15.39,0,0,0-.82,4.92,14.81,14.81,0,0,0,4.07,10.26,14,14,0,0,0,4.48,3.11,14.54,14.54,0,0,0,11.31,0,13.5,13.5,0,0,0,4.46-3.18,14.72,14.72,0,0,0,2.91-4.69,15.74,15.74,0,0,0,1-5.72,14.91,14.91,0,0,0-1.46-6.55,13.43,13.43,0,0,0-4.27-5.12v4.18a10.9,10.9,0,0,1,1.71,3.22,12.48,12.48,0,0,1,.6,4,12.85,12.85,0,0,1-.74,4.44,10.32,10.32,0,0,1-2.11,3.56,9.27,9.27,0,0,1-3.34,2.33,11.36,11.36,0,0,1-4.48.84,11.82,11.82,0,0,1-4.3-.76,10,10,0,0,1-3.42-2.15,9.59,9.59,0,0,1-2.24-3.32,11.28,11.28,0,0,1-.8-4.3,13,13,0,0,1,.59-4,8.45,8.45,0,0,1,1.77-3.13,8,8,0,0,1,2.9-2,11.19,11.19,0,0,1,6.56-.46,6.33,6.33,0,0,1,1.77.74,2.83,2.83,0,0,1,1,1.05,2.41,2.41,0,0,1,.33,1.19.9.9,0,0,1-.33.82,1.31,1.31,0,0,1-.74.21,7.78,7.78,0,0,1-1.25-.12c-.48-.07-.9-.15-1.26-.22ZM991,2009a4,4,0,0,1,1.48.63,3.35,3.35,0,0,1,1.09,1.23,4.12,4.12,0,0,1,.42,2,2.56,2.56,0,0,1-.31,1.31,2.22,2.22,0,0,1-.78.8,3.23,3.23,0,0,1-1.08.4,7.1,7.1,0,0,1-1.22.11,5.44,5.44,0,0,1-3.34-1,3.31,3.31,0,0,1-1.37-2.78,2.42,2.42,0,0,1,1-2.13,4.35,4.35,0,0,1,2.51-.68,8.08,8.08,0,0,1,1.61.17m10.32,40.95a3.58,3.58,0,0,0,1.12-.74,3.36,3.36,0,0,0,.74-1.13,3.47,3.47,0,0,0,.27-1.36,3.52,3.52,0,0,0-.27-1.37,3.32,3.32,0,0,0-.74-1.12,3.27,3.27,0,0,0-1.12-.74,3.61,3.61,0,0,0-2.74,0,3.27,3.27,0,0,0-1.12.74,3.47,3.47,0,0,0-.74,1.12,3.52,3.52,0,0,0-.26,1.37,3.47,3.47,0,0,0,.26,1.36,3.52,3.52,0,0,0,.74,1.13,3.58,3.58,0,0,0,1.12.74,3.74,3.74,0,0,0,2.74,0m-25-.38h18v-5.7h-18Zm11.7,22.23.91.68a5.32,5.32,0,0,1,.82.74,4.7,4.7,0,0,1,.61.87,2.31,2.31,0,0,1,.24,1,4.6,4.6,0,0,1-.45,1.79c-.31.68-.61,1.38-.91,2.09s-.62,1.45-.86,2.16a6.42,6.42,0,0,0-.36,2.05,4.64,4.64,0,0,0,.28,1.69,4.72,4.72,0,0,0,.75,1.32,5.48,5.48,0,0,0,1,1,7.62,7.62,0,0,0,1.2.74l4.1-1.36-.91-.69a5.83,5.83,0,0,1-.82-.74,4.7,4.7,0,0,1-.61-.87,2.31,2.31,0,0,1-.24-1.05,4.55,4.55,0,0,1,.45-1.78c.31-.69.61-1.38.92-2.09s.61-1.46.85-2.17a6.38,6.38,0,0,0,.36-2.05,4.64,4.64,0,0,0-.28-1.69,4.9,4.9,0,0,0-.74-1.31,5.9,5.9,0,0,0-1.05-1,7.62,7.62,0,0,0-1.2-.74Zm-11.7,36.36v7.75l5.47-6.57v-5Z" transform="translate(115.2)"/><path class="cls-5" d="M948.2,1055.76v-16.42h-4.56v10.26l-8.44-10h-5.47v16h4.56v-9.35l8.21,9.58Zm-18.47,12.8v5.86l12.2,4.06v.08l-12.2,4.75v6.15l18.62-8.09,1.07.42c.5.2,1,.39,1.33.57a3.4,3.4,0,0,1,1,.66,2.63,2.63,0,0,1,.61,1,4.9,4.9,0,0,1,.21,1.56,6.53,6.53,0,0,1-.57,2.66l4.68.76a13.57,13.57,0,0,0,.68-4.26,11,11,0,0,0-.4-3.3,5.23,5.23,0,0,0-1.18-2.07,6.14,6.14,0,0,0-1.92-1.35c-.76-.36-1.63-.73-2.62-1.11Zm18.47,53.85v-6.65l-6.16-4.33,6.16-4v-6.73l-9.88,7.11-8.59-6v6.34l5,3.16-5,3.26v6.73l8.59-6.16Zm0,36.18v-5.74l-12.27-3.42v-.08l12.27-3.84v-5.62l-18.47-6.57v5.77l11.59,3.46v.08l-11.59,3.42v6.23l11.59,3.15v.08l-11.59,3.76v6.08Zm0,31.38v-6l-18.47-7.29v5.73l12.54,4.34v.07l-12.54,4.68v6.15Zm-18.47,21.13v5.7h9.2a12.33,12.33,0,0,1,1.75.12,4.32,4.32,0,0,1,1.5.47,2.74,2.74,0,0,1,1.06,1,3.45,3.45,0,0,1,.4,1.78,2.48,2.48,0,0,1-1.63,2.57,5.35,5.35,0,0,1-1.58.34q-.85.06-1.65.06h-9v5.7h10.19a23.11,23.11,0,0,0,3.45-.25,7.4,7.4,0,0,0,2.78-1,5,5,0,0,0,1.84-2.09,8,8,0,0,0,.67-3.51,6.37,6.37,0,0,0-.27-1.9,7,7,0,0,0-.68-1.56,5.27,5.27,0,0,0-1-1.16,6,6,0,0,0-1.07-.78v-.08h2.51v-5.47Zm0,32.07v5h-5.47v5.7h5.47v3.65h4.56v-3.65h8.78a5.9,5.9,0,0,0,2.58-.51,4.58,4.58,0,0,0,1.73-1.43,5.94,5.94,0,0,0,1-2.13,11,11,0,0,0,.31-2.66,17.32,17.32,0,0,0-.12-2,8.89,8.89,0,0,0-.45-2h-4.75a2.09,2.09,0,0,1,.43,1.12,9,9,0,0,1,.1,1.2,3.48,3.48,0,0,1-.25,1.46,1.73,1.73,0,0,1-.7.82,2.79,2.79,0,0,1-1.09.34,11.54,11.54,0,0,1-1.38.08h-6.16v-5Zm2,27.63a6.8,6.8,0,0,0-1.9,3.15,13.22,13.22,0,0,0-.53,3.69,11.48,11.48,0,0,0,.36,2.85,7.44,7.44,0,0,0,1.12,2.49,5.84,5.84,0,0,0,1.94,1.75,5.64,5.64,0,0,0,2.81.66,4.93,4.93,0,0,0,2.79-.7,4.87,4.87,0,0,0,1.62-1.79,9.45,9.45,0,0,0,.85-2.32c.19-.82.37-1.59.53-2.31a7.91,7.91,0,0,1,.61-1.79,1.15,1.15,0,0,1,1.08-.7,1,1,0,0,1,1,.8,5.24,5.24,0,0,1,.28,1.78,4.77,4.77,0,0,1-.51,2.26,5.63,5.63,0,0,1-1.5,1.77l3.84,3.46a7.21,7.21,0,0,0,2-3.35,14.38,14.38,0,0,0,.56-3.91,16.21,16.21,0,0,0-.29-3,8.51,8.51,0,0,0-1-2.74,6,6,0,0,0-1.86-2,5.15,5.15,0,0,0-2.94-.78,4.94,4.94,0,0,0-2.8.7,5.24,5.24,0,0,0-1.65,1.79,8.51,8.51,0,0,0-.89,2.31c-.19.83-.37,1.6-.54,2.32a9.53,9.53,0,0,1-.56,1.79,1.07,1.07,0,0,1-1,.7A1.22,1.22,0,0,1,934,1279a3.11,3.11,0,0,1-.34-1.41,4,4,0,0,1,1.56-3.3Zm16.49,40.81v-5.7h-7.71a19.25,19.25,0,0,1-2.51-.15,4.75,4.75,0,0,1-2-.67,3.37,3.37,0,0,1-1.27-1.46,5.93,5.93,0,0,1-.46-2.58,7.16,7.16,0,0,1,.1-1.24,8.89,8.89,0,0,1,.28-1.19h-5.2a4.78,4.78,0,0,0-.16.91q0,.49,0,1a5.48,5.48,0,0,0,.85,3.15,7,7,0,0,0,2.57,2.17v.07h-3v5.7Zm-5.85,22.4a5,5,0,0,1,0,6.73,5.37,5.37,0,0,1-6.77,0,5,5,0,0,1,0-6.73,5.41,5.41,0,0,1,6.77,0m-12.62-6.44v5.25h2.43v.07a6.6,6.6,0,0,0-1,.89,6.86,6.86,0,0,0-.93,1.3,8,8,0,0,0-.69,1.63,6.34,6.34,0,0,0-.26,1.84,9.54,9.54,0,0,0,.7,3.73,8.5,8.5,0,0,0,2,2.87,8.93,8.93,0,0,0,3,1.84,11,11,0,0,0,3.83.65,11.72,11.72,0,0,0,3.71-.59,10.13,10.13,0,0,0,3.13-1.68,8.11,8.11,0,0,0,2.19-2.64,7.53,7.53,0,0,0,.82-3.53,9.78,9.78,0,0,0-.56-3.33,5.27,5.27,0,0,0-1.88-2.52v-.08h10.64v-5.7Zm5.85,47.75a5,5,0,0,1,0-6.73,5.37,5.37,0,0,1,6.77,0,5,5,0,0,1,0,6.73,5.41,5.41,0,0,1-6.77,0m21.28,6.44v-5.7H946.22V1376a5.27,5.27,0,0,0,1.88-2.52,9.78,9.78,0,0,0,.56-3.33,7.53,7.53,0,0,0-.82-3.53,8.11,8.11,0,0,0-2.19-2.64,10.13,10.13,0,0,0-3.13-1.68,11.72,11.72,0,0,0-3.71-.59,11,11,0,0,0-3.83.65,8.93,8.93,0,0,0-3,1.84,8.5,8.5,0,0,0-2,2.87,9.54,9.54,0,0,0-.7,3.73,6.24,6.24,0,0,0,.26,1.86,8.05,8.05,0,0,0,.69,1.61,6.86,6.86,0,0,0,.93,1.3,6.6,6.6,0,0,0,1,.89v.07h-2.43v5.25Zm-21.28,28.9a5,5,0,0,1,0-6.73,5.37,5.37,0,0,1,6.77,0,5,5,0,0,1,0,6.73,5.41,5.41,0,0,1-6.77,0m7.38,6.1a9.12,9.12,0,0,0,3-2.19,9.45,9.45,0,0,0,2-3.27,12,12,0,0,0,0-8,9.45,9.45,0,0,0-2-3.27,9,9,0,0,0-3-2.19,10.35,10.35,0,0,0-8,0,9.12,9.12,0,0,0-3.06,2.19,9.61,9.61,0,0,0-2,3.27,12.13,12.13,0,0,0,0,8,9.61,9.61,0,0,0,2,3.27,9.26,9.26,0,0,0,3.06,2.19,10.47,10.47,0,0,0,8,0m5.24,33.32v-5.7H939a13.89,13.89,0,0,1-1.74-.11,4.41,4.41,0,0,1-1.5-.48,2.74,2.74,0,0,1-1.07-1,3.49,3.49,0,0,1-.4-1.79,2.68,2.68,0,0,1,.46-1.69,2.73,2.73,0,0,1,1.18-.87,5.22,5.22,0,0,1,1.57-.35c.57,0,1.12,0,1.66,0h9v-5.7H938a21.84,21.84,0,0,0-3.46.26,7.6,7.6,0,0,0-2.78,1,5.15,5.15,0,0,0-1.84,2.07,7.91,7.91,0,0,0-.66,3.5,6.42,6.42,0,0,0,.26,1.9,7,7,0,0,0,.69,1.56,5.52,5.52,0,0,0,.95,1.17,4.37,4.37,0,0,0,1.06.76v.08h-2.51v5.47Zm0,44.46v-5.7H939a13.89,13.89,0,0,1-1.74-.11,4.41,4.41,0,0,1-1.5-.48,2.74,2.74,0,0,1-1.07-1,3.49,3.49,0,0,1-.4-1.79,2.16,2.16,0,0,1,.46-1.5,2.59,2.59,0,0,1,1.1-.74,5.12,5.12,0,0,1,1.37-.27l1.21,0h9.77v-5.7h-9.77a6.86,6.86,0,0,1-1.59-.18,3.55,3.55,0,0,1-1.33-.57,2.75,2.75,0,0,1-.9-1.06,3.82,3.82,0,0,1-.32-1.65,2.09,2.09,0,0,1,.93-2,4.26,4.26,0,0,1,2.23-.55H948.2v-5.7H937.29a14.89,14.89,0,0,0-3.13.32,7.16,7.16,0,0,0-2.55,1.07,5.11,5.11,0,0,0-1.71,2,7,7,0,0,0-.62,3.14,7.13,7.13,0,0,0,.76,3.45,6.11,6.11,0,0,0,2.54,2.4,5.06,5.06,0,0,0-2.51,2.26,7.24,7.24,0,0,0-.79,3.44,6.42,6.42,0,0,0,.26,1.9,7,7,0,0,0,.69,1.56,5.52,5.52,0,0,0,.95,1.17,4.37,4.37,0,0,0,1.06.76v.08h-2.51v5.47Z" transform="translate(115.2)"/><path class="cls-4" d="M936.88,1522.62a3.46,3.46,0,0,1-1.31-.32,3.5,3.5,0,0,1-1.11-.8,4.46,4.46,0,0,1-.78-1.23,4.34,4.34,0,0,1-.3-1.68,3.36,3.36,0,0,1,1-2.54,3.26,3.26,0,0,1,2.47-1Zm5.2-8.36a6.48,6.48,0,0,1,1.62,1.69,4.37,4.37,0,0,1,.62,2.38,4.18,4.18,0,0,1-1,2.81,4.44,4.44,0,0,1-2.6,1.48V1509.4H939a12.2,12.2,0,0,0-4,.61,8.81,8.81,0,0,0-3.06,1.73,7.49,7.49,0,0,0-2,2.73,9.08,9.08,0,0,0-.68,3.59,11.53,11.53,0,0,0,.68,4,9.61,9.61,0,0,0,2,3.27,9.26,9.26,0,0,0,3.06,2.19,10.47,10.47,0,0,0,8,0,9.26,9.26,0,0,0,3.06-2.19,9.58,9.58,0,0,0,2-3.27,11.53,11.53,0,0,0,.69-4,10.41,10.41,0,0,0-.95-4.33,9.31,9.31,0,0,0-2.7-3.46Zm-10.37,28.54a6.8,6.8,0,0,0-1.9,3.15,13.27,13.27,0,0,0-.53,3.69,11.48,11.48,0,0,0,.36,2.85,7.44,7.44,0,0,0,1.12,2.49,5.83,5.83,0,0,0,1.94,1.75,5.64,5.64,0,0,0,2.81.66,4.93,4.93,0,0,0,2.79-.7,4.8,4.8,0,0,0,1.62-1.79,9.53,9.53,0,0,0,.85-2.31c.19-.83.37-1.6.53-2.32a8.08,8.08,0,0,1,.61-1.79,1.15,1.15,0,0,1,1.08-.7,1.06,1.06,0,0,1,1,.8,5.24,5.24,0,0,1,.28,1.78,4.77,4.77,0,0,1-.51,2.26,5.63,5.63,0,0,1-1.5,1.77l3.84,3.46a7.23,7.23,0,0,0,2-3.34,14.5,14.5,0,0,0,.56-3.92,16.21,16.21,0,0,0-.29-3,8.6,8.6,0,0,0-1-2.74,6,6,0,0,0-1.86-2,5.15,5.15,0,0,0-2.94-.78,4.94,4.94,0,0,0-2.8.7,5.33,5.33,0,0,0-1.65,1.79,8.45,8.45,0,0,0-.89,2.32c-.19.82-.37,1.59-.53,2.31a10,10,0,0,1-.57,1.79,1.07,1.07,0,0,1-1,.7A1.22,1.22,0,0,1,934,1551a3.11,3.11,0,0,1-.34-1.41,4,4,0,0,1,1.56-3.3Zm8.4,34.16h1.21a3.05,3.05,0,0,1,1.52.36,3.21,3.21,0,0,1,1.07,1,5.06,5.06,0,0,1,.64,1.39,5.82,5.82,0,0,1,.23,1.62,3.63,3.63,0,0,1-.49,1.82,1.64,1.64,0,0,1-1.52.87,1.85,1.85,0,0,1-1.49-.63,4,4,0,0,1-.79-1.52,8,8,0,0,1-.33-1.86c0-.64,0-1.18,0-1.61Zm8.09,0v-5.24h-9.39a19.8,19.8,0,0,0-4.08.38,7,7,0,0,0-3,1.35,6,6,0,0,0-1.85,2.58,11.52,11.52,0,0,0-.62,4.13,13.12,13.12,0,0,0,.74,4.4,10.43,10.43,0,0,0,2.22,3.73l3.12-3a6.94,6.94,0,0,1-1.62-2.07,5.65,5.65,0,0,1-.59-2.57,3.91,3.91,0,0,1,.89-2.56,3,3,0,0,1,2.42-1.09c0,.79,0,1.64,0,2.57a25.84,25.84,0,0,0,.22,2.77,17.7,17.7,0,0,0,.59,2.68,8.07,8.07,0,0,0,1.12,2.3,5.42,5.42,0,0,0,1.83,1.6,5.68,5.68,0,0,0,2.7.58,5.41,5.41,0,0,0,2.47-.53,5.1,5.1,0,0,0,1.78-1.44,6.29,6.29,0,0,0,1.08-2.11,8.7,8.7,0,0,0-.28-5.81,5.35,5.35,0,0,0-2.13-2.53V1577Zm-16.45,25a7.27,7.27,0,0,0-1.92,3.14,11.62,11.62,0,0,0,.13,7.45,9.66,9.66,0,0,0,2,3.26A9.12,9.12,0,0,0,935,1618a10.35,10.35,0,0,0,8,0,9.12,9.12,0,0,0,3.06-2.19,9.63,9.63,0,0,0,2-3.26,11.57,11.57,0,0,0,.69-4,11.7,11.7,0,0,0-.56-3.44,7.25,7.25,0,0,0-1.91-3.14l-4,3.77a5.12,5.12,0,0,1,1,1.17,3.08,3.08,0,0,1,.42,1.64,4.36,4.36,0,0,1-1.29,3.36,5.37,5.37,0,0,1-6.77,0,4.36,4.36,0,0,1-1.29-3.36,3.46,3.46,0,0,1,.4-1.64,3.23,3.23,0,0,1,1-1.17Zm16.45,42.45v-5.7h-7.71a19.25,19.25,0,0,1-2.51-.15,4.75,4.75,0,0,1-2-.67,3.43,3.43,0,0,1-1.27-1.46,5.93,5.93,0,0,1-.46-2.58,7.16,7.16,0,0,1,.1-1.24,9.4,9.4,0,0,1,.28-1.2h-5.2a5,5,0,0,0-.16.92c0,.33,0,.66,0,1a5.5,5.5,0,0,0,.85,3.16,7.11,7.11,0,0,0,2.57,2.17v.07h-3v5.7Zm-11.32,28.08a3.46,3.46,0,0,1-1.31-.32,3.5,3.5,0,0,1-1.11-.8,4.46,4.46,0,0,1-.78-1.23,4.38,4.38,0,0,1-.3-1.68,3.36,3.36,0,0,1,1-2.54,3.26,3.26,0,0,1,2.47-1Zm5.2-8.36a6.48,6.48,0,0,1,1.62,1.69,4.37,4.37,0,0,1,.62,2.38,4.18,4.18,0,0,1-1,2.81,4.49,4.49,0,0,1-2.6,1.48v-13.22H939a12.2,12.2,0,0,0-4,.61,8.81,8.81,0,0,0-3.06,1.73,7.49,7.49,0,0,0-2,2.73,9.08,9.08,0,0,0-.68,3.59,11.53,11.53,0,0,0,.68,4,9.8,9.8,0,0,0,2,3.27,9.23,9.23,0,0,0,3.06,2.18,10.35,10.35,0,0,0,8,0,9.23,9.23,0,0,0,3.06-2.18,9.78,9.78,0,0,0,2-3.27,11.53,11.53,0,0,0,.69-4,10.41,10.41,0,0,0-.95-4.33,9.24,9.24,0,0,0-2.7-3.46Zm6.12,52v-5.74L935.93,1707v-.08l12.27-3.84v-5.62l-18.47-6.57v5.77l11.59,3.46v.08l-11.59,3.42v6.23l11.59,3.15v.08l-11.59,3.76v6.08Zm-12.62,32.92a5,5,0,0,1,0-6.72,5.37,5.37,0,0,1,6.77,0,5,5,0,0,1,0,6.72,5.37,5.37,0,0,1-6.77,0m7.38,6.1A9.23,9.23,0,0,0,946,1753a9.78,9.78,0,0,0,2-3.27,12,12,0,0,0,0-8,9.78,9.78,0,0,0-2-3.27,9.23,9.23,0,0,0-3.06-2.18,10.35,10.35,0,0,0-8,0,9.23,9.23,0,0,0-3.06,2.18,9.8,9.8,0,0,0-2,3.27,12.16,12.16,0,0,0,0,8,9.8,9.8,0,0,0,2,3.27,9.23,9.23,0,0,0,3.06,2.18,10.35,10.35,0,0,0,8,0m5.24,15.62H919.47v5.7H948.2Z" transform="translate(115.2)"/><path class="cls-5" d="M948.2,1809.1v-5.7h-9.35v-.07l9.35-6.24v-7.18l-10.15,7.53-8.32-7.34v7l7.3,6.31H919.47v5.7Zm-21.94,20.69a3.18,3.18,0,0,0,1-2.33,3.31,3.31,0,1,0-6.61,0,3.15,3.15,0,0,0,1,2.33,3.31,3.31,0,0,0,4.68,0m3.47-5.18v5.7h18.85l1.18,0a5.19,5.19,0,0,1,1.21.23,2.2,2.2,0,0,1,.95.61,1.6,1.6,0,0,1,.38,1.14,3.22,3.22,0,0,1-.34,1.48l5.06.31a7.41,7.41,0,0,0,.24-1.33c0-.46.06-.9.06-1.33a8.36,8.36,0,0,0-.55-3.25,5.19,5.19,0,0,0-1.56-2.11,6.22,6.22,0,0,0-2.43-1.14,13.69,13.69,0,0,0-3.21-.34Zm-3.47,26.46a3.18,3.18,0,0,0,1-2.33,3.31,3.31,0,1,0-6.61,0,3.15,3.15,0,0,0,1,2.33,3.31,3.31,0,0,0,4.68,0m21.94-5.18H929.73v5.7H948.2Zm-28.73,39H948.2v-5.7H939a12.22,12.22,0,0,1-1.74-.11,4.4,4.4,0,0,1-1.5-.47,2.77,2.77,0,0,1-1.07-1,3.49,3.49,0,0,1-.4-1.79,2.7,2.7,0,0,1,.46-1.69,2.73,2.73,0,0,1,1.18-.87,5.22,5.22,0,0,1,1.57-.34c.57,0,1.12-.06,1.66-.06h9v-5.7H938a20.68,20.68,0,0,0-3.46.27,7.41,7.41,0,0,0-2.78,1,5.21,5.21,0,0,0-1.84,2.07,7.94,7.94,0,0,0-.66,3.5,6.42,6.42,0,0,0,.26,1.9,6.09,6.09,0,0,0,.69,1.52,4.86,4.86,0,0,0,.95,1.1,3.38,3.38,0,0,0,1.06.65v.07H919.47Zm17.65,30a4.69,4.69,0,0,1-1.44-1,5.1,5.1,0,0,1-1-1.45,4.24,4.24,0,0,1-.38-1.8,4.36,4.36,0,0,1,.38-1.79,5,5,0,0,1,1-1.46,4.52,4.52,0,0,1,1.44-1,4.57,4.57,0,0,1,3.46,0,4.31,4.31,0,0,1,1.44,1,4.83,4.83,0,0,1,1,1.46,4.2,4.2,0,0,1,.38,1.79,4.09,4.09,0,0,1-.38,1.8,4.91,4.91,0,0,1-1,1.45,4.46,4.46,0,0,1-1.44,1,4.57,4.57,0,0,1-3.46,0m-7.39-14v5.25h2.43v.07a5.94,5.94,0,0,0-1,.92,6.76,6.76,0,0,0-.93,1.36,9,9,0,0,0-.69,1.81,8.56,8.56,0,0,0-.26,2.22,7.57,7.57,0,0,0,.81,3.54,8.61,8.61,0,0,0,2.15,2.64,9.74,9.74,0,0,0,3.08,1.67,11.39,11.39,0,0,0,7.41-.06,8.82,8.82,0,0,0,3-1.84,8.22,8.22,0,0,0,2-2.87,9.49,9.49,0,0,0,.71-3.72,8.05,8.05,0,0,0-.55-2.76,5.47,5.47,0,0,0-1.88-2.45v-.08h1.78a4.49,4.49,0,0,1,3.25,1.24,5.16,5.16,0,0,1,1.27,3.86,7.9,7.9,0,0,1-.64,3.21,12.24,12.24,0,0,1-1.75,2.79l4.71,3.15a11,11,0,0,0,2.15-4.4,21.52,21.52,0,0,0,.55-4.87c0-3.6-.91-6.27-2.72-8s-4.46-2.64-8-2.64Zm18.47,42.87V1938H934.29v-4.22h-4.56V1938h-2.92a3.18,3.18,0,0,1-2.42-.69,3.08,3.08,0,0,1-.59-2,4.54,4.54,0,0,1,.1-1,7.08,7.08,0,0,1,.28-.91l-4.82-.27a11.22,11.22,0,0,0-.27,1.64c-.05.56-.07,1.13-.07,1.71a10,10,0,0,0,.58,3.74,5.16,5.16,0,0,0,1.62,2.19,5.82,5.82,0,0,0,2.37,1,14.64,14.64,0,0,0,2.87.27h3.27v3.76h4.56v-3.76Zm-11.32,30.06a3.67,3.67,0,0,1-1.31-.33,3.35,3.35,0,0,1-1.11-.8,4.46,4.46,0,0,1-.78-1.23,4.33,4.33,0,0,1-.3-1.67,3.37,3.37,0,0,1,1-2.55,3.3,3.3,0,0,1,2.47-1Zm5.2-8.36a6.33,6.33,0,0,1,1.62,1.69,4.33,4.33,0,0,1,.62,2.37,4.16,4.16,0,0,1-1,2.81,4.5,4.5,0,0,1-2.6,1.49v-13.23H939a12.2,12.2,0,0,0-4,.61,8.81,8.81,0,0,0-3.06,1.73,7.57,7.57,0,0,0-2,2.73,9.1,9.1,0,0,0-.68,3.6,11.51,11.51,0,0,0,.68,4,9.61,9.61,0,0,0,2,3.27,9.26,9.26,0,0,0,3.06,2.19,10.35,10.35,0,0,0,8,0,9.12,9.12,0,0,0,3-2.19,9.45,9.45,0,0,0,2-3.27,11.52,11.52,0,0,0,.69-4,10.45,10.45,0,0,0-.95-4.34,9.31,9.31,0,0,0-2.7-3.46Zm.27,35.89a5,5,0,0,1,0,6.72,5.37,5.37,0,0,1-6.77,0,5,5,0,0,1,0-6.72,5.37,5.37,0,0,1,6.77,0m-22.88-6.45v5.7h12.24v.08a5.31,5.31,0,0,0-1.88,2.53,9.68,9.68,0,0,0-.55,3.32,7.57,7.57,0,0,0,.81,3.54,8.24,8.24,0,0,0,2.19,2.64,10.11,10.11,0,0,0,3.13,1.67,11.76,11.76,0,0,0,3.71.59,11.05,11.05,0,0,0,3.84-.65,8.82,8.82,0,0,0,3-1.84,8.26,8.26,0,0,0,2-2.87,9.45,9.45,0,0,0,.71-3.72,6.37,6.37,0,0,0-.27-1.85,8.57,8.57,0,0,0-.68-1.63,6.69,6.69,0,0,0-.94-1.29,6.19,6.19,0,0,0-1-.9v-.07h2.43v-5.25Zm12.28,32.84a7.18,7.18,0,0,0-1.92,3.13,11.73,11.73,0,0,0-.55,3.44,11.53,11.53,0,0,0,.68,4,9.8,9.8,0,0,0,2,3.27,9.23,9.23,0,0,0,3.06,2.18,10.35,10.35,0,0,0,8,0,9.09,9.09,0,0,0,3-2.18,9.64,9.64,0,0,0,2-3.27,11.53,11.53,0,0,0,.69-4,11.75,11.75,0,0,0-.56-3.44,7.16,7.16,0,0,0-1.91-3.13l-4,3.76a5,5,0,0,1,1,1.18,3,3,0,0,1,.42,1.63,4.33,4.33,0,0,1-1.29,3.36,5.37,5.37,0,0,1-6.77,0,4.33,4.33,0,0,1-1.29-3.36,3.39,3.39,0,0,1,.4-1.63,3.19,3.19,0,0,1,1-1.18Zm3.83,44.63a5,5,0,0,1,0-6.73,5.37,5.37,0,0,1,6.77,0,5,5,0,0,1,0,6.73,5.41,5.41,0,0,1-6.77,0m12.62,6.44v-5.25h-2.43v-.07a6.19,6.19,0,0,0,1-.9,6.13,6.13,0,0,0,.94-1.29,8.65,8.65,0,0,0,.68-1.61,6.24,6.24,0,0,0,.27-1.86A9.54,9.54,0,0,0,948,2064a8.36,8.36,0,0,0-2-2.87,9,9,0,0,0-3-1.84,11.05,11.05,0,0,0-3.84-.65,11.76,11.76,0,0,0-3.71.59,10.13,10.13,0,0,0-3.13,1.68,8.24,8.24,0,0,0-2.19,2.64,7.53,7.53,0,0,0-.81,3.53,9.78,9.78,0,0,0,.55,3.33,5.33,5.33,0,0,0,1.88,2.52v.08H919.47v5.7Zm-8.09,20.75h1.21a3.08,3.08,0,0,1,1.52.36,3.11,3.11,0,0,1,1.07,1,4.87,4.87,0,0,1,.64,1.38,5.82,5.82,0,0,1,.23,1.62,3.63,3.63,0,0,1-.49,1.82,1.65,1.65,0,0,1-1.52.88,1.85,1.85,0,0,1-1.49-.63,4.15,4.15,0,0,1-.79-1.52,8.24,8.24,0,0,1-.33-1.86c0-.65,0-1.19,0-1.62Zm8.09,0v-5.25h-9.39a19.8,19.8,0,0,0-4.08.38,7.23,7.23,0,0,0-3,1.35,6.05,6.05,0,0,0-1.85,2.59,11.46,11.46,0,0,0-.62,4.12,13.17,13.17,0,0,0,.74,4.41,10.31,10.31,0,0,0,2.22,3.72l3.12-3a6.94,6.94,0,0,1-1.62-2.07,5.62,5.62,0,0,1-.59-2.57,3.93,3.93,0,0,1,.89-2.56,3,3,0,0,1,2.42-1.08c0,.78,0,1.64,0,2.56a26,26,0,0,0,.22,2.78,17.84,17.84,0,0,0,.59,2.67,7.94,7.94,0,0,0,1.12,2.3,5.32,5.32,0,0,0,1.83,1.6,5.67,5.67,0,0,0,2.7.59,5.54,5.54,0,0,0,2.47-.53,5.24,5.24,0,0,0,1.78-1.45,6.29,6.29,0,0,0,1.08-2.11,8.57,8.57,0,0,0,.37-2.49,8.69,8.69,0,0,0-.65-3.32,5.39,5.39,0,0,0-2.13-2.53v-.07Z" transform="translate(115.2)"/></g><path class="cls-5" d="M893.2,880.58V859.3h-5.47v13.83l-16.19-13.37H866.3v20.33h5.24V866.94l16.19,13.64Zm0,28v-5.93H881.72L866.3,892.55v7l10.07,6-10.07,5.7v7.37l15.42-10.1Zm0,48.18v-7l-10.83-6.38,10.83-6.58v-7.45L879,939.06l-12.73-8.7v7.18l9.42,5.51-9.42,5.74v7.45l12.84-8.89Zm0,41.5v-5.1l-18.62-5.92v-.08l18.62-5.93V976l-26.9-7.87v6l17.7,4.52v.08l-17.7,5.58v5.51l17.25,5.63v.07l-17.25,4.3v6.46Zm0,35.22v-4.75l-26.9-11.09V1024l17.63,6.77v.07l-17.63,6.65v6.77Z" transform="translate(115.2)"/><g class="cls-2"><path class="cls-4" d="M893.2,1076.7v-19h-5.47v13h-5.47V1059.1h-5.48v11.67h-5v-12.35H866.3v18.28Zm-24.78,16.07a10.19,10.19,0,0,0-2.16,3.84,15.14,15.14,0,0,0-.65,4.41,13.82,13.82,0,0,0,.55,3.84,9.85,9.85,0,0,0,1.66,3.28,7.95,7.95,0,0,0,6.53,3.14,6.29,6.29,0,0,0,3.61-.93,7.37,7.37,0,0,0,2.21-2.34,14.07,14.07,0,0,0,1.33-3c.33-1.09.65-2.1,1-3a8.54,8.54,0,0,1,1.2-2.34,2.28,2.28,0,0,1,1.92-.93,2.16,2.16,0,0,1,1.25.36,2.87,2.87,0,0,1,.88,1,4.71,4.71,0,0,1,.51,1.33,6.77,6.77,0,0,1,.17,1.47,6.58,6.58,0,0,1-.66,2.86,6.12,6.12,0,0,1-1.88,2.3l4.63,4.22a12.27,12.27,0,0,0,2.59-4.18,15.25,15.25,0,0,0,.26-8.83,9.58,9.58,0,0,0-1.63-3.31,8,8,0,0,0-2.78-2.26,8.6,8.6,0,0,0-3.91-.84,6.82,6.82,0,0,0-3.76.92,6.9,6.9,0,0,0-2.24,2.29,12.48,12.48,0,0,0-1.3,3c-.3,1.06-.6,2.06-.91,3a8.49,8.49,0,0,1-1.1,2.3,2.13,2.13,0,0,1-1.86.91,2.16,2.16,0,0,1-1.29-.38,2.76,2.76,0,0,1-.86-1,5.09,5.09,0,0,1-.47-1.29,6.19,6.19,0,0,1-.16-1.33,7.12,7.12,0,0,1,.44-2.34,4.19,4.19,0,0,1,1.35-2Zm14.06,42.48v6.58l-8.36-3.27Zm10.72,17.22v-6.54l-5.7-2.24v-10.45l5.7-2.32v-6.68l-26.9,11.7v4.9ZM869.56,1165a9.16,9.16,0,0,0-1.86,2,10.78,10.78,0,0,0-1.21,2.3,12.17,12.17,0,0,0-.67,2.43,14.08,14.08,0,0,0-.21,2.37,16.58,16.58,0,0,0,1,5.82,13.28,13.28,0,0,0,2.83,4.59,12.87,12.87,0,0,0,4.47,3,16.38,16.38,0,0,0,11.7,0,12.87,12.87,0,0,0,4.47-3,13.44,13.44,0,0,0,2.83-4.59,16.81,16.81,0,0,0,1-5.82,13.35,13.35,0,0,0-1.14-5.39,10.26,10.26,0,0,0-3.53-4.34l-3.69,4.94a6.39,6.39,0,0,1,2.13,2.32,6.67,6.67,0,0,1,.76,3.23,7,7,0,0,1-.64,3,7.46,7.46,0,0,1-1.81,2.41,8.55,8.55,0,0,1-2.74,1.61,9.65,9.65,0,0,1-3.47.59,9.75,9.75,0,0,1-3.46-.59,8.44,8.44,0,0,1-2.76-1.63,7.41,7.41,0,0,1-2.45-5.57,7.14,7.14,0,0,1,.57-2.94,5.8,5.8,0,0,1,1.64-2.15Zm1.75,52.25v-3.88a11.49,11.49,0,0,1,.12-1.63,4.66,4.66,0,0,1,.43-1.48,2.59,2.59,0,0,1,2.57-1.48,2.78,2.78,0,0,1,1.71.47,2.87,2.87,0,0,1,.89,1.2,5.35,5.35,0,0,1,.34,1.61c0,.6.06,1.16.06,1.69v3.5Zm21.89,5.93v-5.93H882.45v-2.93l10.75-5.62v-7.11l-11.36,6.84a6.7,6.7,0,0,0-2.53-4.33,7.87,7.87,0,0,0-4.84-1.48,8.45,8.45,0,0,0-3.94.82,6.7,6.7,0,0,0-2.51,2.2,9.16,9.16,0,0,0-1.32,3.23,18.16,18.16,0,0,0-.4,3.9v10.41Zm0,35.11v-19h-5.47v13h-5.47v-11.66h-5.48v11.66h-5V1240H866.3v18.28Zm-21.89,29.64v-3a15.28,15.28,0,0,1,.1-1.75,5.26,5.26,0,0,1,.43-1.65,3.25,3.25,0,0,1,1-1.22,2.72,2.72,0,0,1,1.66-.47,3.12,3.12,0,0,1,1.57.36,2.74,2.74,0,0,1,1,.95,4,4,0,0,1,.51,1.33,7.06,7.06,0,0,1,.16,1.54v4Zm21.89,5.93v-5.93H882.71v-4.33a18.16,18.16,0,0,0-.4-4,8.3,8.3,0,0,0-1.35-3.16,6.55,6.55,0,0,0-2.54-2.09,9.27,9.27,0,0,0-3.95-.76,8.57,8.57,0,0,0-4,.82,6.6,6.6,0,0,0-2.5,2.2,9,9,0,0,0-1.31,3.25,19.26,19.26,0,0,0-.38,3.95v10Zm-21.89,29.41v-3a15.28,15.28,0,0,1,.1-1.75,5.26,5.26,0,0,1,.43-1.65,3.25,3.25,0,0,1,1-1.22,2.72,2.72,0,0,1,1.66-.47,3.12,3.12,0,0,1,1.57.36,2.74,2.74,0,0,1,1,1,4,4,0,0,1,.51,1.33,7.06,7.06,0,0,1,.16,1.54v4Zm21.89,5.93v-5.93H882.71v-4.33a18.16,18.16,0,0,0-.4-4,8.3,8.3,0,0,0-1.35-3.16,6.47,6.47,0,0,0-2.54-2.09,9.27,9.27,0,0,0-3.95-.76,8.57,8.57,0,0,0-4,.82,6.6,6.6,0,0,0-2.5,2.2,9,9,0,0,0-1.31,3.25,19.26,19.26,0,0,0-.38,4v10ZM866.3,1346V1352h16.3a6.5,6.5,0,0,1,2.32.4,5.45,5.45,0,0,1,1.84,1.12,5.07,5.07,0,0,1,1.21,1.71,5.15,5.15,0,0,1,.44,2.16,5.29,5.29,0,0,1-.44,2.19,5.05,5.05,0,0,1-1.21,1.73,5.61,5.61,0,0,1-1.84,1.12,6.73,6.73,0,0,1-2.32.4H866.3v5.93h16.53a12.74,12.74,0,0,0,4.4-.73,9.64,9.64,0,0,0,3.5-2.14,9.87,9.87,0,0,0,2.32-3.56,15,15,0,0,0,0-9.84,9.82,9.82,0,0,0-2.32-3.55,9.66,9.66,0,0,0-3.5-2.15,13,13,0,0,0-4.4-.72Z" transform="translate(115.2)"/><path class="cls-5" d="M893.2,1396.73v-5.93H871.54v-7.67H866.3v21.28h5.24v-7.68Zm-24.78,21a10.19,10.19,0,0,0-2.16,3.84,15.14,15.14,0,0,0-.65,4.41,13.76,13.76,0,0,0,.55,3.84,9.85,9.85,0,0,0,1.66,3.28,7.95,7.95,0,0,0,6.53,3.14,6.29,6.29,0,0,0,3.61-.93,7.37,7.37,0,0,0,2.21-2.34,14.07,14.07,0,0,0,1.33-3c.33-1.09.65-2.1,1-3a8.54,8.54,0,0,1,1.2-2.34,2.28,2.28,0,0,1,1.92-.93,2.16,2.16,0,0,1,1.25.36,2.87,2.87,0,0,1,.88,1,4.71,4.71,0,0,1,.51,1.33,6.84,6.84,0,0,1,.17,1.47,6.65,6.65,0,0,1-.66,2.87,6.17,6.17,0,0,1-1.88,2.29l4.63,4.22a12.27,12.27,0,0,0,2.59-4.18,15.25,15.25,0,0,0,.26-8.83,9.58,9.58,0,0,0-1.63-3.31,8,8,0,0,0-2.78-2.26,8.6,8.6,0,0,0-3.91-.84,6.42,6.42,0,0,0-6,3.22,12.24,12.24,0,0,0-1.3,3c-.3,1.06-.6,2.06-.91,3a8.49,8.49,0,0,1-1.1,2.3,2.13,2.13,0,0,1-1.86.91,2.1,2.1,0,0,1-1.29-.38,2.76,2.76,0,0,1-.86-1,5.09,5.09,0,0,1-.47-1.29,6.19,6.19,0,0,1-.16-1.33,7,7,0,0,1,.44-2.33,4.17,4.17,0,0,1,1.35-2Zm2.89,47.46v-3.87a11.63,11.63,0,0,1,.12-1.64,4.74,4.74,0,0,1,.43-1.48,2.63,2.63,0,0,1,2.57-1.48,2.78,2.78,0,0,1,1.71.47,2.87,2.87,0,0,1,.89,1.2,5.35,5.35,0,0,1,.34,1.62c0,.59.06,1.16.06,1.69v3.49Zm21.89,5.93v-5.93H882.45v-2.92l10.75-5.63v-7.1l-11.36,6.84a6.67,6.67,0,0,0-2.53-4.33,7.87,7.87,0,0,0-4.84-1.49,8.58,8.58,0,0,0-3.94.82,6.73,6.73,0,0,0-2.51,2.21,9.11,9.11,0,0,0-1.32,3.22,18.16,18.16,0,0,0-.4,3.9v10.41Zm-17.06,38.42a8.06,8.06,0,0,1-2.64-1.77,8.21,8.21,0,0,1-1.77-2.6,8.15,8.15,0,0,1,0-6.38,8.37,8.37,0,0,1,1.77-2.61,8.47,8.47,0,0,1,9.17-1.76,8.35,8.35,0,0,1,2.65,1.76,8.52,8.52,0,0,1,1.76,2.61,8.15,8.15,0,0,1,0,6.38,8.35,8.35,0,0,1-1.76,2.6,8.47,8.47,0,0,1-9.18,1.77m12.5-24.09V1493h-.08a8.34,8.34,0,0,0-3.76-4.06,10.55,10.55,0,0,0-2.58-1,11.94,11.94,0,0,0-2.81-.33,13.52,13.52,0,0,0-5.57,1.13,13.1,13.1,0,0,0-4.35,3,14.07,14.07,0,0,0-2.85,4.56,15.22,15.22,0,0,0-1,5.63,15.57,15.57,0,0,0,1,5.62,13.65,13.65,0,0,0,2.83,4.56,13.35,13.35,0,0,0,4.37,3.06,13.68,13.68,0,0,0,5.59,1.12,14.44,14.44,0,0,0,5.81-1.1,12.56,12.56,0,0,0,4.33-3,13,13,0,0,0,2.72-4.62,17.64,17.64,0,0,0,.93-5.83v-16.3Zm-17.33,58.86v-3a15.28,15.28,0,0,1,.1-1.75,5.26,5.26,0,0,1,.43-1.65,3.15,3.15,0,0,1,1-1.22,2.72,2.72,0,0,1,1.66-.47,3.12,3.12,0,0,1,1.57.36,2.74,2.74,0,0,1,1,1,4,4,0,0,1,.51,1.33,7.06,7.06,0,0,1,.16,1.54v3.95Zm21.89,5.93v-5.93H882.71V1540a18.16,18.16,0,0,0-.4-4,8.3,8.3,0,0,0-1.35-3.16,6.55,6.55,0,0,0-2.54-2.09,9.27,9.27,0,0,0-3.95-.76,8.57,8.57,0,0,0-4,.82,6.6,6.6,0,0,0-2.5,2.2,9,9,0,0,0-1.31,3.25,19.26,19.26,0,0,0-.38,4v10ZM876.29,1588a7.93,7.93,0,0,1-2.76-1.69,7.65,7.65,0,0,1-1.8-2.64,9.43,9.43,0,0,1,0-6.88,7.84,7.84,0,0,1,1.8-2.64,8.08,8.08,0,0,1,2.76-1.69,10.47,10.47,0,0,1,6.93,0,7.75,7.75,0,0,1,4.55,4.33,9.56,9.56,0,0,1,0,6.88,7.67,7.67,0,0,1-1.81,2.64,7.76,7.76,0,0,1-2.74,1.69,10.47,10.47,0,0,1-6.93,0m9.31,5.66a12.71,12.71,0,0,0,4.47-3,13.44,13.44,0,0,0,2.83-4.59,17.74,17.74,0,0,0,0-11.63,13.39,13.39,0,0,0-2.83-4.6,12.85,12.85,0,0,0-4.47-3,16.38,16.38,0,0,0-11.7,0,12.85,12.85,0,0,0-4.47,3,13.24,13.24,0,0,0-2.83,4.6,17.57,17.57,0,0,0,0,11.63,13.28,13.28,0,0,0,2.83,4.59,12.71,12.71,0,0,0,4.47,3,16.24,16.24,0,0,0,11.7,0m7.6,42v-5.93H874.05v-.07l19.15-11.74v-7.76H866.3v5.93H885v.08l-18.69,11.44v8.05Zm0,47.27V1677H872.57v-.08l20.63-6.8v-4.52l-20.63-7.07v-.08H893.2v-5.93H866.3v8.93l17.55,6.24v.07L866.3,1674v9Zm0,31.58v-16.91h-5.47v11H866.3v5.93Zm0,38.84v-5.93H880.43l12.77-11v-8.28l-14.4,13-12.5-12V1737l11.17,10.45H866.3v5.93Zm-26.9,16.72V1776h17.25c.5,0,1.06,0,1.65,0a6,6,0,0,1,1.65.33,3,3,0,0,1,1.28.83,2.31,2.31,0,0,1,.51,1.6,2.73,2.73,0,0,1-2.36,2.66l1.33,5.43a7.15,7.15,0,0,0,4.75-2.85,9.23,9.23,0,0,0,1.52-5.39,10.28,10.28,0,0,0-.81-4.43,6.39,6.39,0,0,0-2.17-2.6,8,8,0,0,0-3.1-1.24,20.2,20.2,0,0,0-3.61-.32Zm26.9,30.7H866.3v5.93h26.9Zm0,46.09V1841H881.57v-11.52H893.2v-5.93H866.3v5.93h10V1841h-10v5.92Zm-16,16.61V1874h5.47v-4.83h4.37a12.37,12.37,0,0,1,.89,2.24,11.06,11.06,0,0,1,.44,3.35,8.86,8.86,0,0,1-.64,3.44,7.87,7.87,0,0,1-1.81,2.64,8.06,8.06,0,0,1-2.74,1.69,10.47,10.47,0,0,1-6.93,0,8.24,8.24,0,0,1-2.76-1.69,7.84,7.84,0,0,1-1.8-2.64,8.86,8.86,0,0,1-.65-3.44,9.75,9.75,0,0,1,.65-3.8,8.2,8.2,0,0,1,1.9-2.74l-4.56-4.18a11.64,11.64,0,0,0-2.68,4.77,21.47,21.47,0,0,0-.78,6,16.52,16.52,0,0,0,1,5.81,13.33,13.33,0,0,0,2.83,4.6,12.85,12.85,0,0,0,4.47,3,16.38,16.38,0,0,0,11.7,0,12.85,12.85,0,0,0,4.47-3,13.48,13.48,0,0,0,2.83-4.6,16.75,16.75,0,0,0,1-5.81,28.17,28.17,0,0,0-.6-5.82,21.74,21.74,0,0,0-2-5.47Zm16,58.06v-5.92H882.71v-11.21h-5.47v11.21h-5.47v-12.13H866.3v18Zm0,35.34v-19h-5.47v13h-5.47v-11.67h-5.48V1951h-5v-12.35H866.3v18.27Zm-21.43,34.54v-3.49a13.29,13.29,0,0,1,.47-3.55,8.72,8.72,0,0,1,1.43-3,6.92,6.92,0,0,1,2.41-2,7.58,7.58,0,0,1,3.44-.74,9.1,9.1,0,0,1,3.86.74,6.68,6.68,0,0,1,2.54,2,8.1,8.1,0,0,1,1.39,3.06,16.5,16.5,0,0,1,.42,3.82v3.07Zm21.43,5.93v-9.69a18.87,18.87,0,0,0-.87-5.74,14.77,14.77,0,0,0-2.57-4.82,12.54,12.54,0,0,0-4.18-3.33,12.85,12.85,0,0,0-5.76-1.23,14.11,14.11,0,0,0-6.27,1.27,11.56,11.56,0,0,0-4.2,3.44,14.14,14.14,0,0,0-2.33,5.07,25.5,25.5,0,0,0-.72,6.14v8.89Zm-23.64,15.28a9.35,9.35,0,0,0-1.86,2,11.28,11.28,0,0,0-1.21,2.3,12.45,12.45,0,0,0-.67,2.44,14.08,14.08,0,0,0-.21,2.37,16.52,16.52,0,0,0,1,5.81,13.24,13.24,0,0,0,2.83,4.6,12.85,12.85,0,0,0,4.47,3,16.24,16.24,0,0,0,11.7,0,12.85,12.85,0,0,0,4.47-3,13.39,13.39,0,0,0,2.83-4.6,16.75,16.75,0,0,0,1-5.81,13.43,13.43,0,0,0-1.14-5.4,10.29,10.29,0,0,0-3.53-4.33l-3.69,4.94a6.31,6.31,0,0,1,2.13,2.32,6.64,6.64,0,0,1,.76,3.23,7,7,0,0,1-.64,3,7.4,7.4,0,0,1-1.81,2.42,8.55,8.55,0,0,1-2.74,1.61,10.47,10.47,0,0,1-6.93,0,8.62,8.62,0,0,1-2.76-1.63,7.41,7.41,0,0,1-2.45-5.57,7.11,7.11,0,0,1,.57-2.94,5.8,5.8,0,0,1,1.64-2.15Zm12.51,52.25v-4.49a10.75,10.75,0,0,1,.11-1.55,6.39,6.39,0,0,1,.42-1.56,3,3,0,0,1,.89-1.2,2.42,2.42,0,0,1,1.54-.47,2.85,2.85,0,0,1,1.48.36,3,3,0,0,1,1,.93,3.68,3.68,0,0,1,.53,1.27,6.64,6.64,0,0,1,.15,1.39v5.32Zm-10.76,0v-4a7.74,7.74,0,0,1,.14-1.41,4.26,4.26,0,0,1,.43-1.29,2.4,2.4,0,0,1,2.24-1.29,2.78,2.78,0,0,1,1.37.32,2.51,2.51,0,0,1,.91.86,3.58,3.58,0,0,1,.5,1.2,6,6,0,0,1,.15,1.34v4.3Zm21.89,5.93v-11a17.59,17.59,0,0,0-.38-3.59,10.23,10.23,0,0,0-1.25-3.25,7.21,7.21,0,0,0-2.3-2.36,6.47,6.47,0,0,0-3.56-.91,7,7,0,0,0-2.43.42,6,6,0,0,0-2,1.19,6.44,6.44,0,0,0-1.41,1.87,7.63,7.63,0,0,0-.74,2.41h-.08a7,7,0,0,0-2.14-3.36,5.64,5.64,0,0,0-3.78-1.28,6.31,6.31,0,0,0-3.54.88,6.06,6.06,0,0,0-2.07,2.28,9.74,9.74,0,0,0-1,3.17,26.1,26.1,0,0,0-.24,3.51v10Zm-10.72,25.11v6.58l-8.36-3.27Zm10.72,17.22v-6.54l-5.7-2.24v-10.45l5.7-2.32v-6.69l-26.9,11.71v4.9Z" transform="translate(115.2)"/><g class="cls-8"><g class="cls-9"><line class="cls-10" x1="202.13" y1="412.12" x2="1323.3" y2="412.12"/></g></g></g><line class="cls-11" x1="574.72" y1="334.8" x2="574.72" y2="428.4"/><g class="cls-2"><path class="cls-5" d="M694.84,438.31h.93v-2.45a1.63,1.63,0,0,1,.37-1.19,1.37,1.37,0,0,1,1-.38.82.82,0,0,1,.22,0l.23.05,0-1a1.31,1.31,0,0,0-.41-.06,1.74,1.74,0,0,0-.45.06,2.31,2.31,0,0,0-.42.18,1.87,1.87,0,0,0-.35.28,1.48,1.48,0,0,0-.25.35h0v-.75h-.93Zm-5-2.85a1.16,1.16,0,0,1,.11-.5,1.65,1.65,0,0,1,.3-.46,1.7,1.7,0,0,1,.48-.33,1.44,1.44,0,0,1,.62-.13,1.67,1.67,0,0,1,.62.11,1.23,1.23,0,0,1,.44.3,1.33,1.33,0,0,1,.26.45,2,2,0,0,1,.1.56Zm3.92.75v-.33a3.33,3.33,0,0,0-.13-.94,2.28,2.28,0,0,0-.42-.82,2.2,2.2,0,0,0-.74-.6,2.38,2.38,0,0,0-1.09-.22,2.61,2.61,0,0,0-1,.19,2.46,2.46,0,0,0-.8.54,2.65,2.65,0,0,0-.71,1.84,2.78,2.78,0,0,0,.17,1,2.51,2.51,0,0,0,.5.82,2.26,2.26,0,0,0,.8.54,2.68,2.68,0,0,0,1,.2,2.6,2.6,0,0,0,2.17-1l-.7-.54a2.25,2.25,0,0,1-.59.53,1.32,1.32,0,0,1-.75.2,1.87,1.87,0,0,1-.62-.1,1.8,1.8,0,0,1-.53-.29,1.33,1.33,0,0,1-.36-.45,1.13,1.13,0,0,1-.14-.58Zm-9.24,1.23a1.29,1.29,0,0,1-.5-.35,1.46,1.46,0,0,1-.32-.54,2,2,0,0,1,0-1.37,1.46,1.46,0,0,1,.32-.54,1.54,1.54,0,0,1,.5-.35,1.79,1.79,0,0,1,1.34,0,1.71,1.71,0,0,1,.51.35,1.61,1.61,0,0,1,.32.54,2.19,2.19,0,0,1,0,1.37,1.61,1.61,0,0,1-.32.54,1.41,1.41,0,0,1-.51.35,1.79,1.79,0,0,1-1.34,0m3.21-6.93h-.93v3.61h0a1.69,1.69,0,0,0-.71-.6,2.24,2.24,0,0,0-1-.22,2.63,2.63,0,0,0-1,.19,2.18,2.18,0,0,0-.78.54,2.38,2.38,0,0,0-.5.82,3,3,0,0,0,0,2,2.25,2.25,0,0,0,.5.81,2.09,2.09,0,0,0,.78.55,2.63,2.63,0,0,0,1,.2,2.17,2.17,0,0,0,1-.22,1.72,1.72,0,0,0,.74-.61h0v.7h.93Zm-10.64,7.8H678v-2.52a2.3,2.3,0,0,1,.1-.73,1.58,1.58,0,0,1,.29-.51,1.13,1.13,0,0,1,.43-.29,1.4,1.4,0,0,1,.54-.1,1.54,1.54,0,0,1,.42.07,1,1,0,0,1,.35.22,1,1,0,0,1,.25.39,1.68,1.68,0,0,1,.09.58v2.89h.93v-3.14a2.2,2.2,0,0,0-.14-.85,1.74,1.74,0,0,0-.39-.58,1.47,1.47,0,0,0-.57-.33,1.89,1.89,0,0,0-.67-.11,2,2,0,0,0-1,.24,1.32,1.32,0,0,0-.61.63h0v-.75h-.93Zm-5-2.85a1.33,1.33,0,0,1,.11-.5,1.65,1.65,0,0,1,.3-.46,1.7,1.7,0,0,1,.48-.33,1.45,1.45,0,0,1,.63-.13,1.62,1.62,0,0,1,.61.11,1.15,1.15,0,0,1,.44.3,1.07,1.07,0,0,1,.26.45,1.69,1.69,0,0,1,.1.56Zm3.92.75v-.33a3.33,3.33,0,0,0-.13-.94,2.26,2.26,0,0,0-.41-.82,2.3,2.3,0,0,0-.74-.6,2.45,2.45,0,0,0-1.1-.22,2.56,2.56,0,0,0-1,.19,2.36,2.36,0,0,0-.8.54,2.6,2.6,0,0,0-.72,1.84,2.79,2.79,0,0,0,.18,1,2.28,2.28,0,0,0,1.29,1.36,2.69,2.69,0,0,0,1,.2,2.61,2.61,0,0,0,2.17-1l-.71-.54a2.22,2.22,0,0,1-.58.53,1.37,1.37,0,0,1-.76.2,1.87,1.87,0,0,1-.62-.1,1.75,1.75,0,0,1-.52-.29,1.36,1.36,0,0,1-.37-.45,1.24,1.24,0,0,1-.14-.58Zm-5.4-2.13a2.26,2.26,0,0,0-.85-.58,2.91,2.91,0,0,0-2.07,0,2.37,2.37,0,0,0-.81.53,2.55,2.55,0,0,0-.52.82,2.87,2.87,0,0,0-.18,1,2.91,2.91,0,0,0,.18,1,2.33,2.33,0,0,0,.53.8,2.45,2.45,0,0,0,.81.52,2.68,2.68,0,0,0,1,.19,2.87,2.87,0,0,0,1-.18,2,2,0,0,0,.84-.58l-.66-.66a1.74,1.74,0,0,1-.51.41,1.54,1.54,0,0,1-.67.14,1.51,1.51,0,0,1-.65-.13,1.37,1.37,0,0,1-.5-.35,1.72,1.72,0,0,1-.32-.54,1.69,1.69,0,0,1-.11-.64,2.39,2.39,0,0,1,.09-.66,1.92,1.92,0,0,1,.29-.55,1.4,1.4,0,0,1,.48-.39,1.53,1.53,0,0,1,.66-.14,1.55,1.55,0,0,1,.68.14,2,2,0,0,1,.54.41Zm-5.46,0a1.55,1.55,0,0,0-.72-.62,2.55,2.55,0,0,0-1-.18,2.52,2.52,0,0,0-.67.09,1.66,1.66,0,0,0-.6.28,1.32,1.32,0,0,0-.59,1.13,1.17,1.17,0,0,0,.13.59,1,1,0,0,0,.33.39,1.51,1.51,0,0,0,.47.25l.57.17.36.07.38.13a1,1,0,0,1,.31.21.49.49,0,0,1,.13.34.42.42,0,0,1-.09.27.64.64,0,0,1-.23.2,1,1,0,0,1-.32.11,1.45,1.45,0,0,1-.35,0,1.27,1.27,0,0,1-.69-.18,2.74,2.74,0,0,1-.5-.4l-.7.58a1.87,1.87,0,0,0,.82.68,2.69,2.69,0,0,0,1.07.19,2.82,2.82,0,0,0,.71-.09,1.92,1.92,0,0,0,.64-.26,1.58,1.58,0,0,0,.45-.48,1.36,1.36,0,0,0,.18-.71,1.43,1.43,0,0,0-.11-.58,1.08,1.08,0,0,0-.3-.4,1.68,1.68,0,0,0-.45-.27,4.75,4.75,0,0,0-.57-.18l-.37-.07a1.93,1.93,0,0,1-.41-.12,1.46,1.46,0,0,1-.33-.22.48.48,0,0,1,.11-.76,1.15,1.15,0,0,1,.57-.14,1.2,1.2,0,0,1,.59.14,1.41,1.41,0,0,1,.41.35Zm-8.36,1.36a1.33,1.33,0,0,1,.11-.5,1.49,1.49,0,0,1,.31-.46,1.7,1.7,0,0,1,.48-.33,1.38,1.38,0,0,1,.62-.13,1.62,1.62,0,0,1,.61.11,1.08,1.08,0,0,1,.44.3,1.2,1.2,0,0,1,.27.45,2,2,0,0,1,.09.56Zm3.93.75v-.33a3.74,3.74,0,0,0-.13-.94,2.45,2.45,0,0,0-.42-.82,2.2,2.2,0,0,0-.74-.6,2.45,2.45,0,0,0-1.1-.22,2.59,2.59,0,0,0-1,.19,2.36,2.36,0,0,0-.8.54,2.82,2.82,0,0,0-.53.82,2.61,2.61,0,0,0-.19,1,2.79,2.79,0,0,0,.18,1,2.28,2.28,0,0,0,1.29,1.36,2.73,2.73,0,0,0,1,.2,2.61,2.61,0,0,0,2.17-1l-.7-.54a2.42,2.42,0,0,1-.59.53,1.37,1.37,0,0,1-.76.2,1.87,1.87,0,0,1-.62-.1,1.75,1.75,0,0,1-.52-.29,1.36,1.36,0,0,1-.37-.45,1.24,1.24,0,0,1-.14-.58Zm-9.24,1.23a1.41,1.41,0,0,1-.51-.35,1.61,1.61,0,0,1-.32-.54,2.19,2.19,0,0,1,0-1.37,1.61,1.61,0,0,1,.32-.54,1.71,1.71,0,0,1,.51-.35,1.78,1.78,0,0,1,.67-.13,1.82,1.82,0,0,1,.67.13,1.54,1.54,0,0,1,.5.35,1.46,1.46,0,0,1,.32.54,2,2,0,0,1,0,1.37,1.46,1.46,0,0,1-.32.54,1.29,1.29,0,0,1-.5.35,1.63,1.63,0,0,1-.67.13,1.6,1.6,0,0,1-.67-.13m3.21-6.93h-.93v3.61h0a1.79,1.79,0,0,0-.72-.6,2.24,2.24,0,0,0-1-.22,2.54,2.54,0,0,0-1,.19,2.31,2.31,0,0,0-.79.54,2.55,2.55,0,0,0-.5.82,3.12,3.12,0,0,0,0,2,2.4,2.4,0,0,0,.5.81,2.21,2.21,0,0,0,.79.55,2.54,2.54,0,0,0,1,.2,2.22,2.22,0,0,0,1-.22,1.78,1.78,0,0,0,.74-.61h0v.7h.93Z" transform="translate(115.2)"/><path class="cls-5" d="M1108.67,375.58a17.81,17.81,0,0,1,4.95-10.68q4.05-4,11-4,7.34,0,11.45,3.93t4.25,10.74Zm47.08,11.58v-4.25a44.34,44.34,0,0,0-2.12-14.34,30,30,0,0,0-5.92-10.49,25.2,25.2,0,0,0-9.13-6.49,30,30,0,0,0-11.77-2.25,37.11,37.11,0,0,0-13.12,2.31,31.53,31.53,0,0,0-10.68,6.56,31.17,31.17,0,0,0-7.14,10.23,34.9,34.9,0,0,0,0,26.63A31.17,31.17,0,0,0,1103,405.3a31.53,31.53,0,0,0,10.68,6.56,37.11,37.11,0,0,0,13.12,2.31,35.55,35.55,0,0,0,14-2.83,31.26,31.26,0,0,0,12.09-9.52l-11.06-8.36a26.86,26.86,0,0,1-6.88,6,18.41,18.41,0,0,1-9.71,2.38,16.89,16.89,0,0,1-11.2-3.86,15.67,15.67,0,0,1-5.4-10.8Zm-87.92,1.54a17.54,17.54,0,0,1-3.61,5.92,17.8,17.8,0,0,1-5.72,4.12,18.25,18.25,0,0,1-20.91-4.12,17.67,17.67,0,0,1-3.6-5.92,20.38,20.38,0,0,1,0-13.89,17.67,17.67,0,0,1,3.6-5.92,18.11,18.11,0,0,1,5.73-4.12,18.22,18.22,0,0,1,20.9,4.12,17.54,17.54,0,0,1,3.61,5.92,20.38,20.38,0,0,1,0,13.89m-50,53.26h15.44V404.78h.38a21.76,21.76,0,0,0,3,3.15,23.74,23.74,0,0,0,4.37,3,26.86,26.86,0,0,0,5.92,2.31,29.82,29.82,0,0,0,7.72.9,28.83,28.83,0,0,0,12.09-2.51,28.11,28.11,0,0,0,9.46-6.88,31.68,31.68,0,0,0,6.11-10.29,36.39,36.39,0,0,0,2.19-12.74,38.53,38.53,0,0,0-2.06-12.73,29.52,29.52,0,0,0-6-10.29,28.54,28.54,0,0,0-9.65-6.89,31.13,31.13,0,0,0-12.73-2.5,29.07,29.07,0,0,0-12.22,2.57,19.87,19.87,0,0,0-9,8.23h-.26v-9.26h-14.66Zm-48.76-28.82-3,7.34c-.68,1.63-1.33,3-1.93,4.18a8.28,8.28,0,0,1-5.53,4.44,18.93,18.93,0,0,1-4.76.51,18.35,18.35,0,0,1-4-.45,34.47,34.47,0,0,1-3.8-1.09L944.13,442A45.74,45.74,0,0,0,956,443.5a31,31,0,0,0,8.81-1.09,17.7,17.7,0,0,0,6.37-3.34,22.39,22.39,0,0,0,4.7-5.54,47.49,47.49,0,0,0,3.66-7.65l29.2-75H992.63L977.2,393.72h-.26L959.7,350.88h-17Zm-57.5-.51H927.8V336.21h27.91V321.55h-72v14.66h27.92Zm-110.76,0h15.43V364h14.28V350.88H816.26V339.69a34.59,34.59,0,0,1,.33-4.89,10,10,0,0,1,1.41-4.05,7.93,7.93,0,0,1,3-2.77,11.05,11.05,0,0,1,5.15-1,19.81,19.81,0,0,1,3.22.26c1,.17,2.1.39,3.21.64l1-13.12a49.9,49.9,0,0,0-9.78-.9,29.31,29.31,0,0,0-11.7,2,16,16,0,0,0-7,5.73,22.68,22.68,0,0,0-3.41,8.94,68.65,68.65,0,0,0-.9,11.64v8.75H788.09V364h12.74ZM730.4,374.81a17.35,17.35,0,0,1,3.6-5.92,18.25,18.25,0,0,1,26.63,0,17.67,17.67,0,0,1,3.6,5.92,20.38,20.38,0,0,1,0,13.89,17.67,17.67,0,0,1-3.6,5.92,18.23,18.23,0,0,1-26.63,0,17.35,17.35,0,0,1-3.6-5.92,20.22,20.22,0,0,1,0-13.89m-14,20.26a31.17,31.17,0,0,0,7.14,10.23,31.53,31.53,0,0,0,10.68,6.56,38.41,38.41,0,0,0,26.24,0,31.53,31.53,0,0,0,10.68-6.56,31.17,31.17,0,0,0,7.14-10.23,34.9,34.9,0,0,0,0-26.63,31.17,31.17,0,0,0-7.14-10.23,31.53,31.53,0,0,0-10.68-6.56,38.41,38.41,0,0,0-26.24,0,31.53,31.53,0,0,0-10.68,6.56,31.17,31.17,0,0,0-7.14,10.23,35,35,0,0,0,0,26.63m-78.66,18.07-3,7.34q-1,2.44-1.93,4.18a8.28,8.28,0,0,1-5.53,4.44,19,19,0,0,1-4.76.51,18.22,18.22,0,0,1-4-.45,33.85,33.85,0,0,1-3.8-1.09L612.75,442a45.69,45.69,0,0,0,11.84,1.54,31.08,31.08,0,0,0,8.81-1.09,17.79,17.79,0,0,0,6.37-3.34,22.14,22.14,0,0,0,4.69-5.54,47.49,47.49,0,0,0,3.67-7.65l29.2-75H661.25l-15.44,42.84h-.25l-17.24-42.84h-17Zm-130.58-.51h15.44V378.92a22.53,22.53,0,0,1,.77-5.91,13.87,13.87,0,0,1,2.51-5,12.39,12.39,0,0,1,4.38-3.47,14.66,14.66,0,0,1,6.49-1.29c3.77,0,6.48,1.14,8.11,3.41s2.44,5.34,2.44,9.2v36.79h15.44V379.18a24.14,24.14,0,0,1,.71-5.85,14.81,14.81,0,0,1,2.31-5.15,11.94,11.94,0,0,1,4.12-3.6,12.74,12.74,0,0,1,6.11-1.35,12.11,12.11,0,0,1,5.66,1.16,9.1,9.1,0,0,1,3.47,3.15,13,13,0,0,1,1.8,4.63,28,28,0,0,1,.52,5.47v35h15.44V375.84a44.43,44.43,0,0,0-1.16-10.36,23.29,23.29,0,0,0-3.8-8.43,18.3,18.3,0,0,0-6.88-5.66,23.78,23.78,0,0,0-10.42-2.05,24.44,24.44,0,0,0-12,2.76,21.82,21.82,0,0,0-8.37,8.69q-4.75-11.46-19.29-11.45-7.72,0-12.29,3.41a20.83,20.83,0,0,0-6.62,7.78h-.26v-9.65H507.13Zm-64.25-37.82a17.35,17.35,0,0,1,3.6-5.92,18.25,18.25,0,0,1,26.63,0,17.67,17.67,0,0,1,3.6,5.92,20.38,20.38,0,0,1,0,13.89,17.67,17.67,0,0,1-3.6,5.92,18.23,18.23,0,0,1-26.63,0,17.35,17.35,0,0,1-3.6-5.92,20.38,20.38,0,0,1,0-13.89m-14,20.26A31.17,31.17,0,0,0,436,405.3a31.73,31.73,0,0,0,10.68,6.56,38.44,38.44,0,0,0,26.25,0,31.59,31.59,0,0,0,10.67-6.56,31.17,31.17,0,0,0,7.14-10.23,34.9,34.9,0,0,0,0-26.63,31.17,31.17,0,0,0-7.14-10.23,31.59,31.59,0,0,0-10.67-6.56,38.44,38.44,0,0,0-26.25,0A31.73,31.73,0,0,0,436,358.21a31.17,31.17,0,0,0-7.14,10.23,35,35,0,0,0,0,26.63M384.79,364v28.3a47.92,47.92,0,0,0,.84,9.52,15.7,15.7,0,0,0,3.09,6.89,13.35,13.35,0,0,0,6.17,4.11,31.66,31.66,0,0,0,10.1,1.35,50.19,50.19,0,0,0,6.24-.45,19.6,19.6,0,0,0,6-1.61v-13a9.36,9.36,0,0,1-3.86,1.48,25,25,0,0,1-4.5.45q-5.14,0-6.88-2.7a13.43,13.43,0,0,1-1.74-7.33V364h17V350.88h-17V333H384.79v17.88H372.06V364Zm-36.91,24.44q0,6.57-3.8,10.36t-11.77,3.8a16.42,16.42,0,0,1-3.86-.46,10.36,10.36,0,0,1-3.47-1.47,8.82,8.82,0,0,1-2.51-2.51,6.54,6.54,0,0,1-1-3.67,6.18,6.18,0,0,1,2.45-5.21,17.2,17.2,0,0,1,6-2.83,38,38,0,0,1,7.53-1.22q4-.25,7.2-.26h3.22Zm.9,24.19h13.89V377.12c0-1.45,0-3.15-.13-5.08a33.07,33.07,0,0,0-.84-6,24.82,24.82,0,0,0-2.31-6.11,16.82,16.82,0,0,0-4.57-5.34,24.26,24.26,0,0,0-7.46-3.79,35.67,35.67,0,0,0-11.06-1.48,44.41,44.41,0,0,0-14.22,2.31,30.05,30.05,0,0,0-12,7.59l8.11,8.11a23.05,23.05,0,0,1,7.33-4.7,23.82,23.82,0,0,1,9.13-1.74,16.88,16.88,0,0,1,10.17,2.9q4,2.9,4,8.68v1.67h-3.86c-2.58,0-5.32.07-8.24.2a74.22,74.22,0,0,0-8.68.9,48.31,48.31,0,0,0-8.3,2.12,24.57,24.57,0,0,0-7,3.8,17.49,17.49,0,0,0-4.82,5.91,18.57,18.57,0,0,0-1.8,8.56,16.34,16.34,0,0,0,1.93,8.1,17.59,17.59,0,0,0,5.08,5.79,22.51,22.51,0,0,0,7.2,3.48,30.13,30.13,0,0,0,8.3,1.15,26.57,26.57,0,0,0,11.32-2.38,19.8,19.8,0,0,0,8.49-7.65h.39Zm-112.44,0h15.44V378.92a22.53,22.53,0,0,1,.77-5.91,13.87,13.87,0,0,1,2.51-5,12.36,12.36,0,0,1,4.37-3.47,14.74,14.74,0,0,1,6.5-1.29,9.71,9.71,0,0,1,6.3,1.87,11,11,0,0,1,3.41,4.63,20.4,20.4,0,0,1,1.35,5.91c.17,2.11.26,4,.26,5.73v31.26h15.44v-39a35.59,35.59,0,0,0-1.16-9.13,20.42,20.42,0,0,0-3.86-7.72,19.93,19.93,0,0,0-7-5.41,24.23,24.23,0,0,0-10.49-2.05q-7.71,0-12.22,3.41a21.65,21.65,0,0,0-6.69,8H251v-9.91H236.34ZM163.62,377.9l14.28-37,14,37Zm-31.91,34.73h18.14l8.24-20.84h39.49l8.49,20.84H224.6l-39.24-91.08h-14Z" transform="translate(115.2)"/><path class="cls-5" d="M709.73,401.83a1.16,1.16,0,0,1,.11-.5,1.52,1.52,0,0,1,.3-.46,1.37,1.37,0,0,1,.48-.33,1.44,1.44,0,0,1,.62-.13,1.49,1.49,0,0,1,.62.11,1.35,1.35,0,0,1,.44.29,1.43,1.43,0,0,1,.26.45,2.13,2.13,0,0,1,.1.57Zm3.92.74v-.33a3.31,3.31,0,0,0-.13-.93,2.33,2.33,0,0,0-.42-.83,2.17,2.17,0,0,0-.74-.59,2.38,2.38,0,0,0-1.09-.23,2.61,2.61,0,0,0-1,.2,2.46,2.46,0,0,0-.8.54,2.39,2.39,0,0,0-.52.82,2.59,2.59,0,0,0-.19,1,2.8,2.8,0,0,0,.17,1,2.62,2.62,0,0,0,.5.82,2.26,2.26,0,0,0,.8.54,2.68,2.68,0,0,0,1,.19,2.57,2.57,0,0,0,2.17-1l-.7-.53a2.45,2.45,0,0,1-.59.53,1.4,1.4,0,0,1-.75.2,1.87,1.87,0,0,1-.62-.1,1.8,1.8,0,0,1-.53-.29,1.55,1.55,0,0,1-.36-.45,1.17,1.17,0,0,1-.14-.59Zm-8.26,2.11h.93v-2.46a1.67,1.67,0,0,1,.36-1.18,1.35,1.35,0,0,1,1-.39.85.85,0,0,1,.23,0l.23.05,0-1a1.07,1.07,0,0,0-.41-.07,1.83,1.83,0,0,0-.46.07,2.65,2.65,0,0,0-.42.18,1.81,1.81,0,0,0-.34.28,1.24,1.24,0,0,0-.25.35h0v-.75h-.93Zm-1.4-4.89h-.93v2.52a2.63,2.63,0,0,1-.1.73,1.39,1.39,0,0,1-.29.51,1.17,1.17,0,0,1-.44.29,1.32,1.32,0,0,1-.53.1,1.16,1.16,0,0,1-.42-.07.84.84,0,0,1-.36-.22,1.25,1.25,0,0,1-.25-.39,1.64,1.64,0,0,1-.09-.58v-2.89h-.93v3.15a2.17,2.17,0,0,0,.15.84,1.5,1.5,0,0,0,.38.58,1.63,1.63,0,0,0,.57.34,2.15,2.15,0,0,0,.68.1,2,2,0,0,0,1-.24,1.37,1.37,0,0,0,.61-.63h0v.75H704Zm-5.54,0h-1.33v-1.38h-.93v1.38h-1.07v.8h1.07v2.55q0,.3,0,.6a1.36,1.36,0,0,0,.16.53,1,1,0,0,0,.44.38,1.84,1.84,0,0,0,.83.15l.41,0a1.46,1.46,0,0,0,.43-.13v-.85a1,1,0,0,1-.32.12l-.35,0a.74.74,0,0,1-.4-.1.59.59,0,0,1-.21-.26,1.35,1.35,0,0,1-.08-.36c0-.13,0-.27,0-.41v-2.22h1.33Zm-6.85,4.89h.93v-2.46a1.67,1.67,0,0,1,.36-1.18,1.35,1.35,0,0,1,1-.39.91.91,0,0,1,.23,0l.23.05,0-1a1.1,1.1,0,0,0-.41-.07,1.77,1.77,0,0,0-.46.07,2.65,2.65,0,0,0-.42.18,1.81,1.81,0,0,0-.34.28,1.07,1.07,0,0,0-.25.35h0v-.75h-.93Zm-5-2.85a1.33,1.33,0,0,1,.11-.5,1.38,1.38,0,0,1,.31-.46,1.55,1.55,0,0,1,1.1-.46,1.45,1.45,0,0,1,.61.11,1.17,1.17,0,0,1,.44.29,1.29,1.29,0,0,1,.27.45,2.12,2.12,0,0,1,.09.57Zm3.92.74v-.33a3.71,3.71,0,0,0-.12-.93,2.5,2.5,0,0,0-.42-.83,2.17,2.17,0,0,0-.74-.59,2.45,2.45,0,0,0-1.1-.23,2.6,2.6,0,0,0-1,.2,2.36,2.36,0,0,0-.8.54,2.6,2.6,0,0,0-.72,1.83,2.8,2.8,0,0,0,.18,1,2.29,2.29,0,0,0,.5.82,2.22,2.22,0,0,0,.79.54,2.73,2.73,0,0,0,1.05.19,2.58,2.58,0,0,0,2.17-1l-.7-.53a2.65,2.65,0,0,1-.59.53,1.46,1.46,0,0,1-.76.2,1.87,1.87,0,0,1-.62-.1,1.75,1.75,0,0,1-.52-.29,1.59,1.59,0,0,1-.37-.45,1.28,1.28,0,0,1-.14-.59Zm-7.72-1.91a1.54,1.54,0,0,1,.51.35,1.61,1.61,0,0,1,.32.54,2.19,2.19,0,0,1,0,1.37,1.61,1.61,0,0,1-.32.54,1.54,1.54,0,0,1-.51.35,1.79,1.79,0,0,1-1.34,0,1.41,1.41,0,0,1-.5-.35,1.46,1.46,0,0,1-.32-.54,2,2,0,0,1,0-1.37,1.46,1.46,0,0,1,.32-.54,1.41,1.41,0,0,1,.5-.35,1.79,1.79,0,0,1,1.34,0m-3.21,6.93h.93V404h0a1.79,1.79,0,0,0,.72.6,2.21,2.21,0,0,0,1,.22,2.58,2.58,0,0,0,1-.19,2.31,2.31,0,0,0,.79-.54,2.62,2.62,0,0,0,.5-.82,2.8,2.8,0,0,0,.17-1,2.77,2.77,0,0,0-.17-1,2.51,2.51,0,0,0-.5-.82,2.21,2.21,0,0,0-.79-.55,2.58,2.58,0,0,0-1-.2,2.37,2.37,0,0,0-1,.22,1.86,1.86,0,0,0-.74.61h0v-.7h-.93Zm-2.22-5.26v.31a1.77,1.77,0,0,1-.07.5,1.35,1.35,0,0,1-.24.46,1.2,1.2,0,0,1-.43.33,1.72,1.72,0,0,1-1.42-.05.68.68,0,0,1-.28-.61.66.66,0,0,1,.18-.48,1.25,1.25,0,0,1,.46-.29,2.91,2.91,0,0,1,.63-.14l.68,0ZM674.77,401l.26-.19a1.49,1.49,0,0,1,.3-.18,1.78,1.78,0,0,1,.37-.13,1.65,1.65,0,0,1,.47,0,1.52,1.52,0,0,1,.51.08,1,1,0,0,1,.58.58,1,1,0,0,1,.07.37v.21h-.68a7,7,0,0,0-1,.08,2.93,2.93,0,0,0-.85.29,1.63,1.63,0,0,0-.58.52,1.44,1.44,0,0,0-.21.8,1.39,1.39,0,0,0,.13.63,1.2,1.2,0,0,0,.37.46,1.39,1.39,0,0,0,.54.28,2.53,2.53,0,0,0,1.63-.1,1.78,1.78,0,0,0,.73-.67h0c0,.25,0,.49,0,.74h.82l0-.41c0-.15,0-.3,0-.48v-2.5a1.62,1.62,0,0,0-.12-.61,1.43,1.43,0,0,0-.36-.52,1.88,1.88,0,0,0-.64-.36,2.82,2.82,0,0,0-.92-.14,3.16,3.16,0,0,0-1,.18,2.6,2.6,0,0,0-.9.55Z" transform="translate(115.2)"/><path class="cls-5" d="M939.15,437.84h.92V430h-.92Zm-2.3-2.36v.31a1.79,1.79,0,0,1-.07.51,1.31,1.31,0,0,1-.24.45,1.23,1.23,0,0,1-.43.34,1.42,1.42,0,0,1-.65.13,1.35,1.35,0,0,1-.77-.19.66.66,0,0,1-.28-.61.64.64,0,0,1,.18-.47,1.25,1.25,0,0,1,.46-.29,2.91,2.91,0,0,1,.63-.14c.23,0,.46,0,.68,0Zm-2.56-1.36.26-.19a1.49,1.49,0,0,1,.3-.18,1.35,1.35,0,0,1,.37-.13,1.63,1.63,0,0,1,.47-.06,1.29,1.29,0,0,1,.51.09,1,1,0,0,1,.58.58.94.94,0,0,1,.07.37v.2h-.68a5.67,5.67,0,0,0-1,.09,2.9,2.9,0,0,0-.86.29,1.54,1.54,0,0,0-.58.52,1.42,1.42,0,0,0-.21.8,1.39,1.39,0,0,0,.13.63,1.28,1.28,0,0,0,.37.46,1.54,1.54,0,0,0,.54.28,2.53,2.53,0,0,0,1.63-.1,1.87,1.87,0,0,0,.74-.67h0c0,.24,0,.49,0,.74h.82l0-.41c0-.15,0-.31,0-.48v-2.5a1.58,1.58,0,0,0-.12-.61,1.43,1.43,0,0,0-.36-.52,1.88,1.88,0,0,0-.64-.36,2.78,2.78,0,0,0-.92-.14,3.06,3.06,0,0,0-1,.18,2.53,2.53,0,0,0-.91.54ZM928,437.84h.93v-2.52a2.26,2.26,0,0,1,.1-.73,1.27,1.27,0,0,1,.29-.51,1.05,1.05,0,0,1,.43-.3,1.61,1.61,0,0,1,.54-.09,1.23,1.23,0,0,1,.42.07.84.84,0,0,1,.35.21,1,1,0,0,1,.25.39,1.74,1.74,0,0,1,.09.59v2.89h.93v-3.15a2.38,2.38,0,0,0-.14-.84,1.64,1.64,0,0,0-.39-.58,1.38,1.38,0,0,0-.57-.34,2.14,2.14,0,0,0-.67-.11,2,2,0,0,0-1,.24,1.39,1.39,0,0,0-.61.64h0V433H928Zm-2.42-6.17a.66.66,0,0,0,.48.2.69.69,0,0,0,.48-.2.68.68,0,0,0,0-1,.69.69,0,0,0-.48-.2.66.66,0,0,0-.48.2.65.65,0,0,0,0,1m0,6.17h.93V433h-.93Zm-8.87,0h.93V435.3a2.18,2.18,0,0,1,.11-.72,1.4,1.4,0,0,1,.27-.5,1.14,1.14,0,0,1,.41-.29,1.18,1.18,0,0,1,.48-.1,1,1,0,0,1,.54.12.76.76,0,0,1,.31.33,1.47,1.47,0,0,1,.15.5,5.92,5.92,0,0,1,0,.64v2.56h.92v-2.68a1.84,1.84,0,0,1,.29-1.06,1.12,1.12,0,0,1,1-.41,1.09,1.09,0,0,1,.55.12.87.87,0,0,1,.32.31,1.09,1.09,0,0,1,.15.46,4.55,4.55,0,0,1,0,.53v2.73h.93V435a4.17,4.17,0,0,0-.08-.8,1.78,1.78,0,0,0-.29-.69,1.34,1.34,0,0,0-.56-.49,2,2,0,0,0-.93-.19,1.89,1.89,0,0,0-.88.23,1.57,1.57,0,0,0-.67.68,1.69,1.69,0,0,0-.61-.68,1.74,1.74,0,0,0-.92-.23,1.64,1.64,0,0,0-.6.1,2,2,0,0,0-.48.24,1.9,1.9,0,0,0-.33.29.87.87,0,0,0-.16.26h0V433h-.87Zm-3.82,0h.93v-2.46a1.69,1.69,0,0,1,.36-1.19,1.41,1.41,0,0,1,1.05-.38l.22,0,.23.05,0-1a1.31,1.31,0,0,0-.41-.06,1.41,1.41,0,0,0-.45.07,1.44,1.44,0,0,0-.42.18,2.33,2.33,0,0,0-.35.27,1.78,1.78,0,0,0-.25.36h0V433h-.93Zm-5-2.85a1.13,1.13,0,0,1,.11-.5,1.52,1.52,0,0,1,.3-.46,1.54,1.54,0,0,1,.48-.34,1.6,1.6,0,0,1,.62-.13,1.67,1.67,0,0,1,.62.11,1.55,1.55,0,0,1,.44.3,1.43,1.43,0,0,1,.26.45,2,2,0,0,1,.1.57Zm3.92.74v-.33a3.26,3.26,0,0,0-.13-.93,2.33,2.33,0,0,0-.42-.83,2.17,2.17,0,0,0-.74-.59,2.41,2.41,0,0,0-1.09-.23,2.61,2.61,0,0,0-1,.2,2.46,2.46,0,0,0-.8.54,2.39,2.39,0,0,0-.52.82,2.59,2.59,0,0,0-.19,1,2.8,2.8,0,0,0,.17,1,2.57,2.57,0,0,0,.5.81,2.16,2.16,0,0,0,.8.55,2.68,2.68,0,0,0,1,.19,2.57,2.57,0,0,0,2.17-1l-.7-.54a2.49,2.49,0,0,1-.59.54,1.4,1.4,0,0,1-.75.2,1.88,1.88,0,0,1-.62-.11,1.58,1.58,0,0,1-.53-.28,1.55,1.55,0,0,1-.36-.45,1.17,1.17,0,0,1-.14-.59ZM906,433h-1.33v-1.38h-.93V433h-1.08v.8h1.08v2.55c0,.2,0,.4,0,.59a1.23,1.23,0,0,0,.17.54,1.08,1.08,0,0,0,.43.38,1.86,1.86,0,0,0,.83.15l.41,0a1.37,1.37,0,0,0,.43-.13V437a.87.87,0,0,1-.32.11,2.09,2.09,0,0,1-.34,0,.75.75,0,0,1-.41-.1.67.67,0,0,1-.21-.26,1,1,0,0,1-.07-.36c0-.14,0-.27,0-.41v-2.22H906Z" transform="translate(115.2)"/><path class="cls-5" d="M859.2,394.78h.93v-2.54a2.28,2.28,0,0,1,.1-.72,1.42,1.42,0,0,1,.28-.5,1.18,1.18,0,0,1,.41-.29,1.12,1.12,0,0,1,.48-.1,1,1,0,0,1,.54.12.76.76,0,0,1,.31.33,1.73,1.73,0,0,1,.15.5,6.25,6.25,0,0,1,0,.64v2.56h.93v-2.67a1.85,1.85,0,0,1,.29-1.07,1.33,1.33,0,0,1,1.51-.29.89.89,0,0,1,.32.32,1.49,1.49,0,0,1,.15.45,4.63,4.63,0,0,1,0,.54v2.72h.93v-2.85a3.56,3.56,0,0,0-.08-.8,1.76,1.76,0,0,0-.28-.69,1.52,1.52,0,0,0-.57-.49,2.07,2.07,0,0,0-.93-.19,1.89,1.89,0,0,0-.87.23,1.52,1.52,0,0,0-.67.68,1.59,1.59,0,0,0-1.53-.91,2,2,0,0,0-.61.1,2.29,2.29,0,0,0-.47.24,1.37,1.37,0,0,0-.33.29.79.79,0,0,0-.16.26h0v-.76h-.87Zm-5-2.85a1.33,1.33,0,0,1,.11-.5,1.55,1.55,0,0,1,.31-.46,1.37,1.37,0,0,1,.48-.33,1.41,1.41,0,0,1,.62-.13,1.45,1.45,0,0,1,.61.11,1.08,1.08,0,0,1,.44.3,1.16,1.16,0,0,1,.27.44,1.79,1.79,0,0,1,.09.57Zm3.93.75v-.33a3.74,3.74,0,0,0-.13-.94,2.36,2.36,0,0,0-.42-.82,2.09,2.09,0,0,0-.74-.6,2.45,2.45,0,0,0-1.1-.23,2.6,2.6,0,0,0-1,.2,2.36,2.36,0,0,0-.8.54,2.69,2.69,0,0,0-.53.82,2.88,2.88,0,0,0,0,2,2.28,2.28,0,0,0,1.29,1.36,2.77,2.77,0,0,0,1.05.2,2.59,2.59,0,0,0,2.17-1l-.7-.53a2.65,2.65,0,0,1-.59.53,1.43,1.43,0,0,1-.76.2,1.82,1.82,0,0,1-1.14-.39,1.78,1.78,0,0,1-.37-.45,1.27,1.27,0,0,1-.14-.58Zm-5.83-2.79h-1.33v-1.37H850v1.37h-1.07v.8H850v2.55q0,.3,0,.6a1.36,1.36,0,0,0,.16.53,1.05,1.05,0,0,0,.44.39,1.84,1.84,0,0,0,.83.15l.41,0a1.39,1.39,0,0,0,.42-.13v-.85a.82.82,0,0,1-.32.12,2,2,0,0,1-.34,0,.66.66,0,0,1-.4-.1.53.53,0,0,1-.21-.26,1.27,1.27,0,0,1-.08-.36c0-.13,0-.27,0-.41v-2.22h1.33Zm-3.88.68a1.49,1.49,0,0,0-.72-.62,2.56,2.56,0,0,0-.95-.19,2.66,2.66,0,0,0-.68.1,1.69,1.69,0,0,0-.59.28,1.32,1.32,0,0,0-.59,1.13,1.17,1.17,0,0,0,.13.59,1,1,0,0,0,.33.39,1.41,1.41,0,0,0,.47.25l.57.17.36.07a1.71,1.71,0,0,1,.38.13,1,1,0,0,1,.31.21.49.49,0,0,1,.13.34.44.44,0,0,1-.09.27.74.74,0,0,1-.23.2,1,1,0,0,1-.32.11,1.47,1.47,0,0,1-.36,0,1.25,1.25,0,0,1-.68-.18,2.74,2.74,0,0,1-.5-.4l-.7.58a1.87,1.87,0,0,0,.82.68,2.86,2.86,0,0,0,1.06.19,2.9,2.9,0,0,0,.72-.09,1.74,1.74,0,0,0,.64-.27,1.48,1.48,0,0,0,.45-.48,1.3,1.3,0,0,0,.18-.7,1.43,1.43,0,0,0-.11-.58,1.08,1.08,0,0,0-.3-.4,1.6,1.6,0,0,0-.46-.27,4.09,4.09,0,0,0-.56-.18l-.37-.07a2.77,2.77,0,0,1-.41-.12,1.46,1.46,0,0,1-.33-.22.48.48,0,0,1-.14-.35.44.44,0,0,1,.25-.41,1.15,1.15,0,0,1,.57-.14,1.2,1.2,0,0,1,.59.14,1.39,1.39,0,0,1,.41.35Z" transform="translate(115.2)"/><path class="cls-5" d="M877.64,375.77l-.71-.27-3.31,7.95.72.26Zm-8.35,4.64a1.31,1.31,0,0,1,.1-.5,1.77,1.77,0,0,1,.31-.46,1.37,1.37,0,0,1,.48-.33,1.44,1.44,0,0,1,.62-.13,1.68,1.68,0,0,1,.62.1,1.4,1.4,0,0,1,.44.31,1.28,1.28,0,0,1,.26.44,2.06,2.06,0,0,1,.1.57Zm3.92.75v-.34a3.31,3.31,0,0,0-.13-.93,2.5,2.5,0,0,0-.42-.83,2.17,2.17,0,0,0-.74-.59,2.42,2.42,0,0,0-1.1-.23,2.6,2.6,0,0,0-1,.2,2.46,2.46,0,0,0-.8.54,2.39,2.39,0,0,0-.52.82,2.59,2.59,0,0,0-.19,1,2.8,2.8,0,0,0,.17,1,2.44,2.44,0,0,0,.5.82,2.26,2.26,0,0,0,.8.54,2.68,2.68,0,0,0,1,.19,2.57,2.57,0,0,0,2.17-1l-.7-.53a2.65,2.65,0,0,1-.59.53,1.4,1.4,0,0,1-.75.2,2.12,2.12,0,0,1-.62-.1,1.8,1.8,0,0,1-.53-.29,1.55,1.55,0,0,1-.36-.45,1.16,1.16,0,0,1-.14-.58Zm-10,2.1h.93v-2.54l2.27,2.54h1.32l-2.48-2.66,2.28-2.22h-1.29l-2.1,2.11v-5h-.93Zm-6.17-1.44a2.47,2.47,0,0,0,1.38,1.36,2.44,2.44,0,0,0,1,.2,2.51,2.51,0,0,0,1-.2,2.59,2.59,0,0,0,.83-.54,2.75,2.75,0,0,0,.55-.82,2.63,2.63,0,0,0,0-2,2.7,2.7,0,0,0-.55-.81,2.46,2.46,0,0,0-.83-.55,2.52,2.52,0,0,0-1-.21,2.68,2.68,0,0,0-1.85.76,2.53,2.53,0,0,0-.55.81,2.63,2.63,0,0,0,0,2m.9-1.69a1.61,1.61,0,0,1,.32-.54,1.54,1.54,0,0,1,.51-.35,1.79,1.79,0,0,1,1.34,0,1.54,1.54,0,0,1,.51.35,1.8,1.8,0,0,1,.32.54,2.19,2.19,0,0,1,0,1.37,1.8,1.8,0,0,1-.32.54,1.54,1.54,0,0,1-.51.35,1.79,1.79,0,0,1-1.34,0,1.54,1.54,0,0,1-.51-.35,1.61,1.61,0,0,1-.32-.54,2.19,2.19,0,0,1,0-1.37m-4.5,3.13h.93V380.8a1.67,1.67,0,0,1,.36-1.18,1.35,1.35,0,0,1,1-.39l.23,0,.23.06,0-1a1.07,1.07,0,0,0-.41-.07,1.83,1.83,0,0,0-.46.07,2.65,2.65,0,0,0-.42.18,2.24,2.24,0,0,0-.34.27,1.45,1.45,0,0,0-.25.36h0v-.75h-.93Zm-1.2-4.89h-1.33V377H850v1.38h-1.07v.8H850v2.55q0,.3,0,.6a1.36,1.36,0,0,0,.16.53,1,1,0,0,0,.44.38,1.84,1.84,0,0,0,.83.15l.41,0a1.39,1.39,0,0,0,.42-.13v-.85a.82.82,0,0,1-.32.12,2,2,0,0,1-.34,0,.74.74,0,0,1-.4-.1.53.53,0,0,1-.21-.26,1.35,1.35,0,0,1-.08-.36c0-.13,0-.27,0-.41v-2.22h1.33Zm-3.88.68a1.49,1.49,0,0,0-.72-.62,2.56,2.56,0,0,0-.95-.19,2.29,2.29,0,0,0-.68.1,1.88,1.88,0,0,0-.59.27,1.6,1.6,0,0,0-.43.47,1.44,1.44,0,0,0-.16.67,1.2,1.2,0,0,0,.13.59,1,1,0,0,0,.33.39,1.62,1.62,0,0,0,.47.25,4.74,4.74,0,0,0,.57.16l.36.08a1.71,1.71,0,0,1,.38.13,1,1,0,0,1,.31.21.49.49,0,0,1,.13.34.44.44,0,0,1-.09.27.74.74,0,0,1-.23.2,1,1,0,0,1-.32.11,1.47,1.47,0,0,1-.36,0,1.25,1.25,0,0,1-.68-.18,3.25,3.25,0,0,1-.5-.4l-.7.58a1.94,1.94,0,0,0,.82.68,3.24,3.24,0,0,0,1.78.1,1.74,1.74,0,0,0,.64-.27,1.48,1.48,0,0,0,.45-.48,1.3,1.3,0,0,0,.18-.7,1.43,1.43,0,0,0-.11-.58,1.08,1.08,0,0,0-.3-.4,1.6,1.6,0,0,0-.46-.27,4.09,4.09,0,0,0-.56-.18l-.37-.07a2.77,2.77,0,0,1-.41-.12A1.46,1.46,0,0,1,846,380a.48.48,0,0,1-.14-.35.44.44,0,0,1,.25-.41,1.15,1.15,0,0,1,.57-.14,1.2,1.2,0,0,1,.59.14,1.39,1.39,0,0,1,.41.35Z" transform="translate(115.2)"/><path class="cls-5" d="M1248.39,411a1.16,1.16,0,0,1,.11-.5,1.52,1.52,0,0,1,.3-.46,1.37,1.37,0,0,1,.48-.33,1.45,1.45,0,0,1,.63-.13,1.48,1.48,0,0,1,.61.11,1.23,1.23,0,0,1,.44.3,1.14,1.14,0,0,1,.26.44,2.13,2.13,0,0,1,.1.57Zm3.92.75v-.33a3.33,3.33,0,0,0-.13-.94,2.07,2.07,0,0,0-.42-.82,2.14,2.14,0,0,0-.73-.6,2.45,2.45,0,0,0-1.1-.23,2.61,2.61,0,0,0-1,.2,2.46,2.46,0,0,0-.8.54,2.49,2.49,0,0,0-.52.82,2.59,2.59,0,0,0-.19,1,3,3,0,0,0,.17,1,2.51,2.51,0,0,0,.5.82,2.26,2.26,0,0,0,.8.54,2.69,2.69,0,0,0,1.05.2,2.57,2.57,0,0,0,2.16-1l-.7-.53a2.45,2.45,0,0,1-.59.53,1.4,1.4,0,0,1-.75.2,1.87,1.87,0,0,1-.62-.1,1.8,1.8,0,0,1-.53-.29,1.55,1.55,0,0,1-.36-.45,1.16,1.16,0,0,1-.14-.58Zm-10.36,2.1h.93v-2.52a2.3,2.3,0,0,1,.1-.73,1.27,1.27,0,0,1,.29-.51,1.16,1.16,0,0,1,.43-.3,1.61,1.61,0,0,1,.54-.09,1.23,1.23,0,0,1,.42.07.87.87,0,0,1,.35.22,1,1,0,0,1,.25.39,1.64,1.64,0,0,1,.09.58v2.89h.93v-3.15a2.38,2.38,0,0,0-.14-.84,1.56,1.56,0,0,0-1-.92,2.14,2.14,0,0,0-.67-.11,2.07,2.07,0,0,0-1,.25,1.35,1.35,0,0,0-.6.63h0V409H1242Zm-2.42-6.17a.62.62,0,0,0,.48.2.65.65,0,0,0,.48-.2.66.66,0,0,0,.2-.48.68.68,0,0,0-.68-.68.7.7,0,0,0-.69.68.63.63,0,0,0,.21.48m0,6.17h.93V409h-.93Zm-2.48,0h.93v-7.8h-.93ZM1232,411a1.33,1.33,0,0,1,.11-.5,1.55,1.55,0,0,1,.31-.46,1.37,1.37,0,0,1,.48-.33,1.41,1.41,0,0,1,.62-.13,1.49,1.49,0,0,1,.62.11,1.11,1.11,0,0,1,.43.3,1.16,1.16,0,0,1,.27.44,2.13,2.13,0,0,1,.1.57Zm3.93.75v-.33a3.74,3.74,0,0,0-.13-.94,2.36,2.36,0,0,0-.42-.82,2.09,2.09,0,0,0-.74-.6,2.42,2.42,0,0,0-1.1-.23,2.6,2.6,0,0,0-1,.2,2.36,2.36,0,0,0-.8.54,2.69,2.69,0,0,0-.53.82,2.88,2.88,0,0,0,0,2,2.35,2.35,0,0,0,.5.82,2.31,2.31,0,0,0,.79.54,2.77,2.77,0,0,0,1,.2,2.59,2.59,0,0,0,2.17-1l-.7-.53a2.65,2.65,0,0,1-.59.53,1.42,1.42,0,0,1-.75.2,1.83,1.83,0,0,1-.62-.1,1.8,1.8,0,0,1-.53-.29,1.78,1.78,0,0,1-.37-.45,1.27,1.27,0,0,1-.14-.58Zm-5.89-2.11a1.49,1.49,0,0,0-.72-.62,2.56,2.56,0,0,0-1-.19,2.66,2.66,0,0,0-.68.1,1.69,1.69,0,0,0-.59.28,1.32,1.32,0,0,0-.59,1.13,1.17,1.17,0,0,0,.13.59,1,1,0,0,0,.33.39,1.41,1.41,0,0,0,.47.25l.57.17.35.07a1.63,1.63,0,0,1,.39.13,1,1,0,0,1,.31.21.49.49,0,0,1,.13.34.44.44,0,0,1-.09.27.74.74,0,0,1-.23.2,1,1,0,0,1-.32.11,1.47,1.47,0,0,1-.36,0,1.25,1.25,0,0,1-.68-.18,2.74,2.74,0,0,1-.5-.4l-.7.58a1.87,1.87,0,0,0,.82.68,2.86,2.86,0,0,0,1.06.19,2.9,2.9,0,0,0,.72-.09,1.74,1.74,0,0,0,.64-.27,1.48,1.48,0,0,0,.45-.48,1.3,1.3,0,0,0,.18-.7,1.43,1.43,0,0,0-.11-.58,1.08,1.08,0,0,0-.3-.4,1.6,1.6,0,0,0-.46-.27,4.09,4.09,0,0,0-.56-.18l-.37-.07a2.77,2.77,0,0,1-.41-.12,1.46,1.46,0,0,1-.33-.22.48.48,0,0,1-.14-.35.44.44,0,0,1,.25-.41,1.15,1.15,0,0,1,.57-.14,1.2,1.2,0,0,1,.59.14,1.39,1.39,0,0,1,.41.35Zm-5.54,1.86v.31a2.23,2.23,0,0,1-.07.5,1.35,1.35,0,0,1-.24.46,1.18,1.18,0,0,1-.43.33,1.45,1.45,0,0,1-.65.13,1.42,1.42,0,0,1-.77-.18.69.69,0,0,1-.29-.61.66.66,0,0,1,.18-.48,1.29,1.29,0,0,1,.47-.29,2.91,2.91,0,0,1,.63-.14l.67,0Zm-2.56-1.36.26-.2a1.49,1.49,0,0,1,.3-.18,1.91,1.91,0,0,1,.36-.13,2.19,2.19,0,0,1,.47-.05,1.38,1.38,0,0,1,.52.09,1,1,0,0,1,.36.23,1,1,0,0,1,.22.34,1.21,1.21,0,0,1,.07.37v.21h-.68a7,7,0,0,0-1,.08,3,3,0,0,0-.86.29,1.82,1.82,0,0,0-.58.52,1.44,1.44,0,0,0-.21.8,1.39,1.39,0,0,0,.14.63,1.27,1.27,0,0,0,.36.46,1.51,1.51,0,0,0,.55.28,2.27,2.27,0,0,0,.65.1,2.35,2.35,0,0,0,1-.2,1.85,1.85,0,0,0,.73-.67h0c0,.25,0,.49,0,.74h.83a2.73,2.73,0,0,1,0-.41c0-.15,0-.3,0-.48V410.5a1.63,1.63,0,0,0-.12-.62,1.42,1.42,0,0,0-.37-.52,1.83,1.83,0,0,0-.63-.36,2.84,2.84,0,0,0-.93-.14,2.88,2.88,0,0,0-1,.19,2.62,2.62,0,0,0-.91.54Zm-5,2.84a1.41,1.41,0,0,1-.5-.35,1.46,1.46,0,0,1-.32-.54,2,2,0,0,1,0-1.37,1.46,1.46,0,0,1,.32-.54,1.41,1.41,0,0,1,.5-.35,1.63,1.63,0,0,1,.67-.13,1.6,1.6,0,0,1,.67.13,1.54,1.54,0,0,1,.51.35,1.61,1.61,0,0,1,.32.54,2.19,2.19,0,0,1,0,1.37,1.61,1.61,0,0,1-.32.54,1.54,1.54,0,0,1-.51.35,1.6,1.6,0,0,1-.67.13,1.63,1.63,0,0,1-.67-.13m-1.87.87h.93v-.7h0a1.86,1.86,0,0,0,.74.61,2.37,2.37,0,0,0,1,.22,2.58,2.58,0,0,0,1-.2,2.21,2.21,0,0,0,.79-.55,2.4,2.4,0,0,0,.5-.81,3.12,3.12,0,0,0,0-2,2.44,2.44,0,0,0-.5-.82,2.31,2.31,0,0,0-.79-.54,2.58,2.58,0,0,0-1-.2,2.25,2.25,0,0,0-1,.23,1.71,1.71,0,0,0-.72.6h0v-3.61H1215Z" transform="translate(115.2)"/><path class="cls-5" d="M377.84,343.32h.93v-2.46a1.71,1.71,0,0,1,.36-1.19,1.38,1.38,0,0,1,1-.38l.23,0,.23.06,0-1a1.49,1.49,0,0,0-.87,0,1.57,1.57,0,0,0-.42.18,1.84,1.84,0,0,0-.34.27,1.23,1.23,0,0,0-.25.36h0v-.75h-.93Zm-5-2.85a1.29,1.29,0,0,1,.11-.5,1.52,1.52,0,0,1,.3-.46,1.54,1.54,0,0,1,.48-.34,1.61,1.61,0,0,1,.63-.12,1.63,1.63,0,0,1,.61.1,1.42,1.42,0,0,1,.44.3,1.13,1.13,0,0,1,.26.45,1.7,1.7,0,0,1,.1.57Zm3.92.74v-.33a3.26,3.26,0,0,0-.13-.93,2.31,2.31,0,0,0-.41-.83,2.27,2.27,0,0,0-.74-.59,2.45,2.45,0,0,0-1.1-.23,2.56,2.56,0,0,0-1,.2,2.36,2.36,0,0,0-.8.54,2.42,2.42,0,0,0-.53.82,2.59,2.59,0,0,0-.19,1,3,3,0,0,0,.17,1,2.42,2.42,0,0,0,.51.81,2.12,2.12,0,0,0,.79.55,2.69,2.69,0,0,0,1.05.19,2.58,2.58,0,0,0,2.17-1l-.71-.54a2.66,2.66,0,0,1-.58.54,1.46,1.46,0,0,1-.76.2,1.88,1.88,0,0,1-.62-.11,1.53,1.53,0,0,1-.52-.28,1.44,1.44,0,0,1-.37-.45,1.28,1.28,0,0,1-.14-.59Zm-9.24,1.24a1.66,1.66,0,0,1-.5-.35,1.46,1.46,0,0,1-.32-.54,1.92,1.92,0,0,1-.12-.69,1.87,1.87,0,0,1,.12-.68,1.46,1.46,0,0,1,.32-.54,1.37,1.37,0,0,1,.5-.35,1.82,1.82,0,0,1,1.35,0,1.37,1.37,0,0,1,.5.35,1.46,1.46,0,0,1,.32.54,1.87,1.87,0,0,1,.12.68,1.92,1.92,0,0,1-.12.69,1.46,1.46,0,0,1-.32.54,1.66,1.66,0,0,1-.5.35,1.82,1.82,0,0,1-1.35,0m3.21-6.94h-.92v3.62h0a1.64,1.64,0,0,0-.71-.61,2.39,2.39,0,0,0-1-.22,2.63,2.63,0,0,0-1,.2,2.3,2.3,0,0,0-1.28,1.36,2.79,2.79,0,0,0-.18,1,2.75,2.75,0,0,0,.18,1,2.44,2.44,0,0,0,.5.82,2.4,2.4,0,0,0,.78.55,2.63,2.63,0,0,0,1,.19,2.39,2.39,0,0,0,1-.21,1.76,1.76,0,0,0,.73-.61h0v.7h.92Zm-10.64,7.81H361V340.8a2.26,2.26,0,0,1,.1-.73,1.39,1.39,0,0,1,.29-.51,1.08,1.08,0,0,1,.44-.3,1.51,1.51,0,0,1,.53-.09,1.16,1.16,0,0,1,.42.07.88.88,0,0,1,.36.21,1.19,1.19,0,0,1,.25.4,1.64,1.64,0,0,1,.09.58v2.89h.93v-3.15a2.17,2.17,0,0,0-.15-.84,1.5,1.5,0,0,0-.38-.58,1.52,1.52,0,0,0-.57-.34,2.2,2.2,0,0,0-.68-.11,2,2,0,0,0-1,.24,1.44,1.44,0,0,0-.61.64h0v-.75h-.93Zm-5-2.85a1.29,1.29,0,0,1,.11-.5,1.49,1.49,0,0,1,1.41-.92,1.68,1.68,0,0,1,.62.1,1.38,1.38,0,0,1,.43.3,1.29,1.29,0,0,1,.27.45,2,2,0,0,1,.1.57Zm3.93.74v-.33a3.66,3.66,0,0,0-.13-.93,2.5,2.5,0,0,0-.42-.83,2.17,2.17,0,0,0-.74-.59,2.42,2.42,0,0,0-1.1-.23,2.6,2.6,0,0,0-1,.2,2.36,2.36,0,0,0-.8.54,2.58,2.58,0,0,0-.53.82,2.88,2.88,0,0,0,0,2,2.4,2.4,0,0,0,.5.81,2.21,2.21,0,0,0,.79.55,2.76,2.76,0,0,0,1.05.19,2.58,2.58,0,0,0,2.17-1l-.7-.54a2.7,2.7,0,0,1-.59.54,1.42,1.42,0,0,1-.75.2,1.84,1.84,0,0,1-.62-.11,1.58,1.58,0,0,1-.53-.28,1.78,1.78,0,0,1-.37-.45,1.28,1.28,0,0,1-.14-.59Zm-5.4-2.12a2.25,2.25,0,0,0-.85-.59,3,3,0,0,0-1-.19,2.89,2.89,0,0,0-1.05.19,2.48,2.48,0,0,0-.8.53,2.42,2.42,0,0,0-.53.82,2.91,2.91,0,0,0-.18,1,2.87,2.87,0,0,0,.18,1,2.47,2.47,0,0,0,.53.81,2.62,2.62,0,0,0,.81.52,2.87,2.87,0,0,0,1,.18,3.12,3.12,0,0,0,1-.17,2.09,2.09,0,0,0,.84-.58l-.66-.66a1.81,1.81,0,0,1-.52.41,1.54,1.54,0,0,1-.67.14,1.67,1.67,0,0,1-.65-.13,1.64,1.64,0,0,1-.5-.36,1.87,1.87,0,0,1-.32-.53,2,2,0,0,1-.11-.65,2.05,2.05,0,0,1,.1-.65,1.57,1.57,0,0,1,.29-.56,1.26,1.26,0,0,1,.47-.38,1.67,1.67,0,0,1,1.34,0,2,2,0,0,1,.55.41Zm-5.46,0a1.47,1.47,0,0,0-.73-.62,2.34,2.34,0,0,0-1-.19,2.57,2.57,0,0,0-.67.09,2.21,2.21,0,0,0-.6.28,1.35,1.35,0,0,0-.42.47,1.3,1.3,0,0,0-.16.67,1.32,1.32,0,0,0,.12.59,1,1,0,0,0,.33.39,1.82,1.82,0,0,0,.48.25c.17.06.36.11.56.16l.36.08a2.4,2.4,0,0,1,.38.12,1,1,0,0,1,.31.22.45.45,0,0,1,.13.34.44.44,0,0,1-.09.27.85.85,0,0,1-.22.2,1.1,1.1,0,0,1-.32.11,2.33,2.33,0,0,1-.36,0,1.21,1.21,0,0,1-.68-.18,2.91,2.91,0,0,1-.51-.4l-.7.58a1.94,1.94,0,0,0,.82.68,3.27,3.27,0,0,0,1.79.1,1.7,1.7,0,0,0,.63-.27,1.33,1.33,0,0,0,.63-1.19,1.23,1.23,0,0,0-.11-.57,1.12,1.12,0,0,0-.3-.41,1.33,1.33,0,0,0-.45-.26,4.59,4.59,0,0,0-.56-.18l-.38-.07a1.7,1.7,0,0,1-.4-.13.93.93,0,0,1-.33-.21.49.49,0,0,1,.1-.76,1.15,1.15,0,0,1,.57-.14,1.24,1.24,0,0,1,.6.14,1.47,1.47,0,0,1,.4.34ZM342.53,341v.3a1.79,1.79,0,0,1-.07.51,1.31,1.31,0,0,1-.24.45,1.23,1.23,0,0,1-.43.34,1.45,1.45,0,0,1-.65.13,1.35,1.35,0,0,1-.77-.19.66.66,0,0,1-.28-.61.64.64,0,0,1,.18-.47,1.25,1.25,0,0,1,.46-.29,2.91,2.91,0,0,1,.63-.14l.68,0ZM340,339.6l.26-.19a1.49,1.49,0,0,1,.3-.18,1.35,1.35,0,0,1,.37-.13,1.65,1.65,0,0,1,.47-.05,1.3,1.3,0,0,1,.51.08,1,1,0,0,1,.58.58.94.94,0,0,1,.07.37v.2h-.68a5.87,5.87,0,0,0-1.05.09,2.93,2.93,0,0,0-.85.29,1.54,1.54,0,0,0-.58.52,1.44,1.44,0,0,0-.21.8,1.39,1.39,0,0,0,.13.63,1.28,1.28,0,0,0,.37.46,1.39,1.39,0,0,0,.54.28,2.53,2.53,0,0,0,1.63-.1,1.78,1.78,0,0,0,.73-.67h0c0,.24,0,.49,0,.74h.82l0-.41c0-.15,0-.31,0-.48v-2.5a1.58,1.58,0,0,0-.12-.61,1.43,1.43,0,0,0-.36-.52,1.88,1.88,0,0,0-.64-.36,2.82,2.82,0,0,0-.92-.14,3.16,3.16,0,0,0-1,.18,2.58,2.58,0,0,0-.9.54Z" transform="translate(115.2)"/><path class="cls-5" d="M112.05,356.62h-1.33v-1.38h-.93v1.38h-1.07v.8h1.07V360q0,.3,0,.6a1.36,1.36,0,0,0,.16.53,1,1,0,0,0,.44.38,1.84,1.84,0,0,0,.83.15l.41,0a1.39,1.39,0,0,0,.42-.13v-.85a.82.82,0,0,1-.32.12,2,2,0,0,1-.34,0,.74.74,0,0,1-.4-.1.53.53,0,0,1-.21-.26,1.35,1.35,0,0,1-.08-.36c0-.14,0-.27,0-.41v-2.22h1.33Zm-8.36,4.89h.93V359a2.57,2.57,0,0,1,.1-.73,1.39,1.39,0,0,1,.29-.51,1.08,1.08,0,0,1,.44-.3,1.51,1.51,0,0,1,.53-.09,1.16,1.16,0,0,1,.42.07.88.88,0,0,1,.36.21,1.19,1.19,0,0,1,.25.4,1.64,1.64,0,0,1,.09.58v2.89H108v-3.15a2.17,2.17,0,0,0-.15-.84,1.5,1.5,0,0,0-.38-.58,1.57,1.57,0,0,0-.57-.34,2.2,2.2,0,0,0-.68-.11,1.93,1.93,0,0,0-1,.25,1.37,1.37,0,0,0-.61.63h0v-3.66h-.93Zm-3.27-4a1.54,1.54,0,0,1,.51.35,1.8,1.8,0,0,1,.32.54,2.15,2.15,0,0,1,.11.68,1.69,1.69,0,0,1-.43,1.2,1.8,1.8,0,0,1-2.36,0,1.65,1.65,0,0,1-.43-1.2,2.15,2.15,0,0,1,.11-.68,1.61,1.61,0,0,1,.32-.54,1.54,1.54,0,0,1,.51-.35,1.79,1.79,0,0,1,1.34,0m1.87-.87h-.93v.7h0a1.78,1.78,0,0,0-.74-.61,2.32,2.32,0,0,0-1-.22,2.59,2.59,0,0,0-1,.2,2.21,2.21,0,0,0-.79.55,2.51,2.51,0,0,0-.5.82,3,3,0,0,0-.17,1,2.73,2.73,0,0,0,.18,1,2.41,2.41,0,0,0,.52.79,2.29,2.29,0,0,0,.79.53,2.54,2.54,0,0,0,1,.19,2.31,2.31,0,0,0,1-.21,1.61,1.61,0,0,0,.73-.66h0v.73a2.55,2.55,0,0,1-.08.61,1.35,1.35,0,0,1-.29.54,1.4,1.4,0,0,1-.54.39,2.14,2.14,0,0,1-.86.15,2.32,2.32,0,0,1-1-.2,2.68,2.68,0,0,1-.78-.59l-.63.78a3.12,3.12,0,0,0,1.11.68,4,4,0,0,0,1.28.2,3,3,0,0,0,1.1-.19,2.53,2.53,0,0,0,.85-.52,2.41,2.41,0,0,0,.54-.79,2.8,2.8,0,0,0,.19-1ZM95,355.34a.65.65,0,0,0,.48.2.62.62,0,0,0,.48-.2.63.63,0,0,0,.21-.48.7.7,0,0,0-.69-.68.68.68,0,0,0-.68.68.66.66,0,0,0,.2.48m0,6.17h.93v-4.89H95Zm-5.11-2.85a1.33,1.33,0,0,1,.11-.5,1.52,1.52,0,0,1,.3-.46,1.37,1.37,0,0,1,.48-.33,1.45,1.45,0,0,1,.63-.13,1.63,1.63,0,0,1,.61.1,1.42,1.42,0,0,1,.44.3,1.26,1.26,0,0,1,.26.45,2.06,2.06,0,0,1,.1.57Zm3.92.74v-.33a3.31,3.31,0,0,0-.13-.93,2.31,2.31,0,0,0-.41-.83,2.27,2.27,0,0,0-.74-.59,2.45,2.45,0,0,0-1.1-.23,2.56,2.56,0,0,0-1,.2,2.36,2.36,0,0,0-.8.54,2.42,2.42,0,0,0-.53.82,2.59,2.59,0,0,0-.19,1,3,3,0,0,0,.17,1,2.47,2.47,0,0,0,.51.82,2.22,2.22,0,0,0,.79.54,2.69,2.69,0,0,0,1.05.19,2.58,2.58,0,0,0,2.17-1l-.71-.53a2.61,2.61,0,0,1-.58.53,1.46,1.46,0,0,1-.76.2,2.17,2.17,0,0,1-.62-.1,1.75,1.75,0,0,1-.52-.29A1.44,1.44,0,0,1,90,360a1.28,1.28,0,0,1-.14-.59Zm-10.36,2.11h.93V359a2.26,2.26,0,0,1,.1-.73,1.39,1.39,0,0,1,.29-.51,1.05,1.05,0,0,1,.43-.3,1.61,1.61,0,0,1,.54-.09,1.23,1.23,0,0,1,.42.07.84.84,0,0,1,.35.21,1,1,0,0,1,.25.4,1.64,1.64,0,0,1,.09.58v2.89h.93v-3.15a2.18,2.18,0,0,0-.14-.84,1.64,1.64,0,0,0-.39-.58,1.5,1.5,0,0,0-.57-.34,2.14,2.14,0,0,0-.67-.11,1.93,1.93,0,0,0-1,.25,1.32,1.32,0,0,0-.61.63h0v-3.66h-.93Zm-6-4a1.54,1.54,0,0,1,.51.35,1.61,1.61,0,0,1,.32.54,2.19,2.19,0,0,1,0,1.37,1.61,1.61,0,0,1-.32.54,1.71,1.71,0,0,1-.51.35,1.79,1.79,0,0,1-1.34,0,1.71,1.71,0,0,1-.51-.35,1.8,1.8,0,0,1-.32-.54,2.19,2.19,0,0,1,0-1.37,1.8,1.8,0,0,1,.32-.54,1.54,1.54,0,0,1,.51-.35,1.79,1.79,0,0,1,1.34,0m-3.21,6.93h.93v-3.61h0a1.76,1.76,0,0,0,.71.6,2.24,2.24,0,0,0,1,.22,2.59,2.59,0,0,0,1-.19,2.31,2.31,0,0,0,.79-.54,2.62,2.62,0,0,0,.5-.82,3,3,0,0,0,.17-1,3,3,0,0,0-.17-1,2.51,2.51,0,0,0-.5-.82,2.21,2.21,0,0,0-.79-.55,2.59,2.59,0,0,0-1-.2,2.32,2.32,0,0,0-1,.22,1.78,1.78,0,0,0-.74.61h0v-.7h-.93ZM72,359.16v.31a1.77,1.77,0,0,1-.07.5,1.35,1.35,0,0,1-.24.46,1.2,1.2,0,0,1-.43.33,1.45,1.45,0,0,1-.65.13,1.33,1.33,0,0,1-.77-.19.76.76,0,0,1-.1-1.08,1.25,1.25,0,0,1,.46-.29,2.91,2.91,0,0,1,.63-.14l.68,0Zm-2.56-1.37.26-.19a1.49,1.49,0,0,1,.3-.18,1.78,1.78,0,0,1,.37-.13,1.65,1.65,0,0,1,.47-.05,1.56,1.56,0,0,1,.51.08,1,1,0,0,1,.58.58.94.94,0,0,1,.07.37v.21h-.68a5.89,5.89,0,0,0-1,.08,2.93,2.93,0,0,0-.85.29,1.63,1.63,0,0,0-.58.52,1.44,1.44,0,0,0-.21.8,1.39,1.39,0,0,0,.13.63,1.2,1.2,0,0,0,.37.46,1.39,1.39,0,0,0,.54.28,2.53,2.53,0,0,0,1.63-.1,1.78,1.78,0,0,0,.73-.67h0c0,.24,0,.49,0,.74h.83l0-.41c0-.15,0-.31,0-.48v-2.5a1.62,1.62,0,0,0-.12-.61,1.35,1.35,0,0,0-.37-.52,1.74,1.74,0,0,0-.63-.36,2.82,2.82,0,0,0-.92-.14,3.16,3.16,0,0,0-1,.18,2.58,2.58,0,0,0-.91.55Zm-1.35-.51a2.37,2.37,0,0,0-.85-.59,2.94,2.94,0,0,0-2.08,0,2.36,2.36,0,0,0-.8.54,2.21,2.21,0,0,0-.52.81,2.75,2.75,0,0,0-.19,1,2.68,2.68,0,0,0,.19,1,2.45,2.45,0,0,0,.52.81,2.62,2.62,0,0,0,.81.52,2.91,2.91,0,0,0,1,.18,2.88,2.88,0,0,0,1-.17,2.09,2.09,0,0,0,.84-.58l-.66-.66a1.81,1.81,0,0,1-.52.41,1.51,1.51,0,0,1-.67.14,1.67,1.67,0,0,1-.65-.13,1.48,1.48,0,0,1-.49-.36,1.51,1.51,0,0,1-.32-.53,1.75,1.75,0,0,1-.12-.65,2.05,2.05,0,0,1,.1-.65,1.75,1.75,0,0,1,.29-.56,1.34,1.34,0,0,1,.47-.38,1.54,1.54,0,0,1,.67-.14,1.59,1.59,0,0,1,.68.14,2,2,0,0,1,.54.41Z" transform="translate(115.2)"/><path class="cls-5" d="M483,338.63a1.47,1.47,0,0,0-.73-.62,2.52,2.52,0,0,0-.95-.19,2.59,2.59,0,0,0-.67.1,1.74,1.74,0,0,0-.6.28,1.27,1.27,0,0,0-.42.47,1.47,1.47,0,0,0,0,1.25,1,1,0,0,0,.33.39,1.57,1.57,0,0,0,.48.25c.17.06.36.12.56.17l.36.07a2.43,2.43,0,0,1,.38.13.85.85,0,0,1,.31.21.45.45,0,0,1,.13.34.44.44,0,0,1-.09.27.7.7,0,0,1-.22.2,1.1,1.1,0,0,1-.32.11,1.53,1.53,0,0,1-.36,0,1.21,1.21,0,0,1-.68-.18,2.5,2.5,0,0,1-.51-.4l-.7.58a1.87,1.87,0,0,0,.82.68,2.92,2.92,0,0,0,1.07.19,3,3,0,0,0,.72-.09,1.7,1.7,0,0,0,.63-.27,1.41,1.41,0,0,0,.46-.48,1.39,1.39,0,0,0,.17-.7,1.28,1.28,0,0,0-.11-.58,1.08,1.08,0,0,0-.3-.4,1.54,1.54,0,0,0-.45-.27,4.59,4.59,0,0,0-.56-.18l-.37-.07a2.2,2.2,0,0,1-.41-.12,1.12,1.12,0,0,1-.33-.22.49.49,0,0,1,.1-.76,1.15,1.15,0,0,1,.57-.14,1.24,1.24,0,0,1,.6.14,1.35,1.35,0,0,1,.4.35Zm-5.75-2a.66.66,0,0,0,.48.21.63.63,0,0,0,.48-.21.62.62,0,0,0,.2-.48.65.65,0,0,0-.2-.48.66.66,0,0,0-.48-.2.68.68,0,0,0-.68.68.66.66,0,0,0,.2.48m0,6.17h.93V338h-.93Zm-6.07,0h1.14l1.45-2,1.44,2h1.2l-2-2.61,1.67-2.28H475l-1.17,1.73L472.64,338h-1.19l1.73,2.28Zm-1.58-2.35v.31a2.23,2.23,0,0,1-.07.5,1.35,1.35,0,0,1-.24.46,1.18,1.18,0,0,1-.43.33,1.45,1.45,0,0,1-.65.13,1.42,1.42,0,0,1-.77-.18.69.69,0,0,1-.29-.61.66.66,0,0,1,.18-.48,1.29,1.29,0,0,1,.47-.29,2.91,2.91,0,0,1,.63-.14l.67,0Zm-2.56-1.36.26-.2a1.49,1.49,0,0,1,.3-.18,1.91,1.91,0,0,1,.36-.13,2.19,2.19,0,0,1,.47-.05,1.38,1.38,0,0,1,.52.09,1,1,0,0,1,.36.23,1,1,0,0,1,.22.34,1.21,1.21,0,0,1,.07.37v.21h-.68a7,7,0,0,0-1.05.08,3,3,0,0,0-.86.29,1.82,1.82,0,0,0-.58.52,1.44,1.44,0,0,0-.21.8,1.39,1.39,0,0,0,.14.63,1.27,1.27,0,0,0,.36.46,1.51,1.51,0,0,0,.55.28,2.27,2.27,0,0,0,.65.1,2.35,2.35,0,0,0,1-.2,1.78,1.78,0,0,0,.73-.67h0c0,.25,0,.49,0,.74h.83a2.73,2.73,0,0,1,0-.41c0-.15,0-.3,0-.48v-2.49a1.63,1.63,0,0,0-.12-.62,1.42,1.42,0,0,0-.37-.52,1.83,1.83,0,0,0-.63-.36,2.84,2.84,0,0,0-.93-.14,3.12,3.12,0,0,0-1,.19,2.62,2.62,0,0,0-.91.54Z" transform="translate(115.2)"/><path class="cls-5" d="M1210.35,376H1209V374.6h-.92V376H1207v.81h1.08v2.55a5.82,5.82,0,0,0,0,.59,1.18,1.18,0,0,0,.17.53,1,1,0,0,0,.43.39,1.86,1.86,0,0,0,.83.15,2.51,2.51,0,0,0,.41,0,1,1,0,0,0,.43-.13V380a1.21,1.21,0,0,1-.32.11l-.34,0a.67.67,0,0,1-.41-.1.64.64,0,0,1-.21-.25,1.06,1.06,0,0,1-.07-.37c0-.13,0-.27,0-.4v-2.22h1.34Zm-8.37,4.89h.93v-2.51a2.31,2.31,0,0,1,.11-.74,1.42,1.42,0,0,1,.29-.51,1.06,1.06,0,0,1,.43-.29,1.53,1.53,0,0,1,.54-.1,1.41,1.41,0,0,1,.41.07,1,1,0,0,1,.36.22,1.09,1.09,0,0,1,.25.39,1.68,1.68,0,0,1,.09.58v2.89h.93v-3.14a2.4,2.4,0,0,0-.14-.85,1.74,1.74,0,0,0-.39-.58,1.47,1.47,0,0,0-.57-.33,1.94,1.94,0,0,0-.68-.11,2.05,2.05,0,0,0-1,.24,1.35,1.35,0,0,0-.61.64h0v-3.67H1202Zm-3.27-4a1.71,1.71,0,0,1,.51.35,1.61,1.61,0,0,1,.32.54,2.17,2.17,0,0,1,.11.69,1.64,1.64,0,0,1-.43,1.19,1.77,1.77,0,0,1-2.36,0,1.69,1.69,0,0,1-.43-1.19,2.17,2.17,0,0,1,.11-.69,1.8,1.8,0,0,1,.32-.54,1.71,1.71,0,0,1,.51-.35,1.79,1.79,0,0,1,1.34,0m1.87-.87h-.93v.7h0a1.79,1.79,0,0,0-.74-.61,2.31,2.31,0,0,0-1-.21,2.63,2.63,0,0,0-1,.19,2.2,2.2,0,0,0-.78.55,2.29,2.29,0,0,0-.5.82,2.79,2.79,0,0,0-.18,1,2.46,2.46,0,0,0,.19,1,2.29,2.29,0,0,0,.51.8,2.55,2.55,0,0,0,.79.53,2.74,2.74,0,0,0,1,.19,2.14,2.14,0,0,0,1-.22,1.58,1.58,0,0,0,.73-.65h0v.72a2.64,2.64,0,0,1-.08.62,1.55,1.55,0,0,1-.28.54,1.52,1.52,0,0,1-.55.39,2.29,2.29,0,0,1-.85.14,2.12,2.12,0,0,1-1-.2,2.44,2.44,0,0,1-.79-.59l-.63.78a3,3,0,0,0,1.11.69,4.06,4.06,0,0,0,1.29.19,3.16,3.16,0,0,0,1.09-.18,2.7,2.7,0,0,0,.85-.52,2.46,2.46,0,0,0,.54-.8,2.61,2.61,0,0,0,.19-1Zm-7.32-1.27a.66.66,0,0,0,.48.2.68.68,0,0,0,.68-.68.66.66,0,0,0-.2-.48.65.65,0,0,0-.48-.2.68.68,0,0,0-.68.68.65.65,0,0,0,.2.48m0,6.16h.93V376h-.93Zm-5.11-2.84a1.38,1.38,0,0,1,.42-1,1.54,1.54,0,0,1,.48-.34,1.38,1.38,0,0,1,.62-.13,1.62,1.62,0,0,1,.61.11,1.08,1.08,0,0,1,.44.3,1.29,1.29,0,0,1,.27.45,2,2,0,0,1,.09.57Zm3.93.74v-.33a3.74,3.74,0,0,0-.13-.94,2.45,2.45,0,0,0-.42-.82,2.2,2.2,0,0,0-.74-.6,2.45,2.45,0,0,0-1.1-.22,2.59,2.59,0,0,0-1,.19,2.38,2.38,0,0,0-.8.55,2.64,2.64,0,0,0-.53.81,2.88,2.88,0,0,0,0,2,2.28,2.28,0,0,0,1.29,1.36,2.73,2.73,0,0,0,1,.2,2.61,2.61,0,0,0,2.17-1l-.7-.54a2.42,2.42,0,0,1-.59.53,1.37,1.37,0,0,1-.76.2,1.76,1.76,0,0,1-1.14-.39,1.36,1.36,0,0,1-.37-.45,1.24,1.24,0,0,1-.14-.58Zm-10.37,2.1h.93v-2.51a2.32,2.32,0,0,1,.1-.74,1.58,1.58,0,0,1,.29-.51,1.17,1.17,0,0,1,.44-.29,1.51,1.51,0,0,1,.53-.1,1.42,1.42,0,0,1,.42.07,1.13,1.13,0,0,1,.36.22,1.08,1.08,0,0,1,.24.39,1.47,1.47,0,0,1,.1.58v2.89h.93v-3.14a2.19,2.19,0,0,0-.15-.85,1.58,1.58,0,0,0-.38-.58,1.64,1.64,0,0,0-.57-.33,2,2,0,0,0-.68-.11,2,2,0,0,0-1,.24,1.35,1.35,0,0,0-.61.64h0v-3.67h-.93Zm-8.87,0H1174l1.44-2.05,1.45,2.05h1.2l-2-2.61,1.67-2.28h-1.13l-1.16,1.74L1174.3,376h-1.2l1.74,2.28Z" transform="translate(115.2)"/></g><line class="cls-12" x1="1281.01" y1="350.42" x2="1281.01" y2="412.64"/><line class="cls-12" x1="1281.53" y1="350.94" x2="1274.62" y2="350.94"/><line class="cls-12" x1="1281.53" y1="412.12" x2="1274.62" y2="412.12"/><polygon class="cls-4" points="919.81 338.26 915.99 343.9 915.99 347.12 921.99 338.26 919.81 338.26"/><polygon class="cls-4" points="915.98 412.62 917.82 412.62 931.47 392.48 931.47 389.26 915.98 412.1 915.98 412.62"/><polygon class="cls-4" points="916.06 338.26 916.06 340.28 917.42 338.26 916.06 338.26"/><polygon class="cls-4" points="931.47 412.62 931.47 409.05 929.05 412.62 931.47 412.62"/><polygon class="cls-4" points="922.32 412.62 931.47 399.13 931.47 395.77 920.05 412.62 922.32 412.62"/><polygon class="cls-4" points="926.96 412.62 931.47 405.97 931.47 402.75 924.78 412.62 926.96 412.62"/><polygon class="cls-4" points="931.47 368.6 915.98 391.44 915.98 394.8 931.47 371.96 931.47 368.6"/><polygon class="cls-4" points="931.47 361.9 915.98 384.75 915.98 387.97 931.47 365.13 931.47 361.9"/><polygon class="cls-4" points="915.98 405.12 915.98 408.48 931.47 385.64 931.47 382.28 915.98 405.12"/><polygon class="cls-4" points="931.47 375.58 915.98 398.43 915.98 401.65 931.47 378.8 931.47 375.58"/><polygon class="cls-4" points="929.08 338.26 915.98 357.58 915.98 360.8 931.27 338.26 929.08 338.26"/><polygon class="cls-4" points="931.47 341.25 915.98 364.09 915.98 367.44 931.47 344.6 931.47 341.25"/><polygon class="cls-4" points="924.35 338.26 915.99 350.6 915.99 353.95 926.63 338.26 924.35 338.26"/><polygon class="cls-4" points="931.47 354.92 915.98 377.76 915.98 381.12 931.47 358.28 931.47 354.92"/><polygon class="cls-4" points="931.47 348.23 915.98 371.07 915.98 374.29 931.47 351.45 931.47 348.23"/><line class="cls-12" x1="953.12" y1="338.26" x2="953.12" y2="412.62"/><line class="cls-12" x1="953.68" y1="338.79" x2="945.4" y2="338.79"/><line class="cls-12" x1="953.64" y1="412.1" x2="945.36" y2="412.1"/><line class="cls-12" x1="233.48" y1="321.54" x2="233.48" y2="412.63"/><line class="cls-12" x1="232.96" y1="322.05" x2="241.24" y2="322.05"/><line class="cls-12" x1="232.96" y1="412.11" x2="241.24" y2="412.11"/><g class="cls-2"><path class="cls-4" d="M975.85,433.56c.38-.62.75-1.29,1.11-2L973.29,437a22.61,22.61,0,0,0,2.56-3.44" transform="translate(115.2)"/><path class="cls-4" d="M970.43,425.18,958,443.47c.67,0,1.31-.08,1.93-.14l12.21-18Z" transform="translate(115.2)"/><path class="cls-4" d="M973.91,425.46,962,443.06c.72-.12,1.4-.27,2-.44l11.55-17Z" transform="translate(115.2)"/><path class="cls-4" d="M977.31,425.73l-10.95,16.15a17.85,17.85,0,0,0,2.77-1.37l9.92-14.64Z" transform="translate(115.2)"/><path class="cls-4" d="M946.73,428.28l-.87,1.28-.37,2.7,2.46-3.63c-.41-.11-.83-.22-1.22-.35" transform="translate(115.2)"/><path class="cls-4" d="M949.48,429.08,945,435.66l-.48,3.41,6.56-9.68c-.41-.06-.83-.11-1.24-.2l-.38-.11" transform="translate(115.2)"/><path class="cls-4" d="M968.69,425l-1.69-.13-12.59,18.57c.51,0,1,0,1.53,0h.22Z" transform="translate(115.2)"/><path class="cls-4" d="M956.48,429.51l-9,13.23,1.65.27,9.4-13.86a14.7,14.7,0,0,1-2.08.36" transform="translate(115.2)"/><path class="cls-4" d="M964.21,424.68a8.65,8.65,0,0,1-2.26,2.83,8.18,8.18,0,0,1-.79.51l-10.31,15.21c.59.06,1.18.13,1.77.17l12.64-18.63Z" transform="translate(115.2)"/><path class="cls-4" d="M953.91,429.63c-.37,0-.73,0-1.1-.06L944.36,442l1.54.36,8.67-12.78h-.66" transform="translate(115.2)"/><path class="cls-4" d="M764.78,376.49,748.64,400.2a19.07,19.07,0,0,0,2.56-.3l14.09-20.7a19,19,0,0,0-.51-2.71" transform="translate(115.2)"/><path class="cls-4" d="M754.15,399c.26-.1.52-.18.77-.3a18.8,18.8,0,0,0,2.94-1.7l7-10.22a20.46,20.46,0,0,0,.61-4.36Z" transform="translate(115.2)"/><path class="cls-4" d="M747.33,363.22c-.62,0-1.23,0-1.82.08l-15.76,23.14a19.94,19.94,0,0,0,.66,2.25l.07.15,17.42-25.6-.57,0" transform="translate(115.2)"/><path class="cls-4" d="M744.07,400a19.49,19.49,0,0,0,2.2.23l17.72-26a18,18,0,0,0-1-2Z" transform="translate(115.2)"/><path class="cls-4" d="M760.65,368.88l-.06-.06-20.46,30.05a16.91,16.91,0,0,0,1.89.67l19.86-29.16a17.49,17.49,0,0,0-1.23-1.5" transform="translate(115.2)"/><path class="cls-4" d="M734,368.9a17.67,17.67,0,0,0-3.6,5.92c-.07.19-.12.38-.18.57l5.5-8.09a18.52,18.52,0,0,0-1.72,1.6" transform="translate(115.2)"/><path class="cls-4" d="M754.92,364.76c-.25-.12-.52-.2-.78-.31l-20.35,29.89c.08.09.15.18.23.26a14.1,14.1,0,0,0,1.17,1.15l20.74-30.47c-.33-.17-.66-.36-1-.52" transform="translate(115.2)"/><path class="cls-4" d="M750.14,363.42l-18.72,27.49a16.08,16.08,0,0,0,1.11,1.82l19.68-28.9a17.23,17.23,0,0,0-2.07-.41" transform="translate(115.2)"/><path class="cls-4" d="M742.87,363.72a15.5,15.5,0,0,0-3,1l-10.57,15.53c0,.49-.07,1-.07,1.48h0c0,.65,0,1.29.1,1.93Z" transform="translate(115.2)"/><path class="cls-4" d="M757.6,366.29,736.71,397c.53.37,1.08.71,1.65,1l20.8-30.55c-.5-.42-1-.8-1.56-1.17" transform="translate(115.2)"/></g></g></svg>