<svg id="Layer_1" data-name="Layer 1" xmlns="http://www.w3.org/2000/svg" viewBox="0 0 93.32 95.34"><title>arrow</title><path d="M46.51,88.54c3.1-8.61,14.55-16,22.33-7.57,3.16,3.41,3.51,9.47.11,12.88-1.48,1.48-3.5,2.11-5.28.55-2.16-1.89-1.57-5.78-1.11-8.19C66.05,68,87.1,61.76,103.2,62.26c10.4.33,18.33,5,23.87,13.72a44.22,44.22,0,0,1,6.76,22.74c.35,17.85-10.6,31.27-23.24,42.57-1.44,1.29.68,3.4,2.12,2.12,14.06-12.57,25.68-27.94,24-47.79C135.16,78.25,124.3,61,105.76,59.4c-17-1.47-38.22,4.47-44.89,21.92-2,5.15-3.73,14.94,3.51,17,5.21,1.46,9.18-4.48,9.82-8.9,1.15-7.93-5.11-14.28-12.79-14.88-8.52-.66-15.07,5.69-17.8,13.24-.65,1.82,2.25,2.6,2.9.8Z" transform="translate(-43.52 -59.18)"/><path d="M100.08,139.73a27.89,27.89,0,0,1,2.41,9.87c.06,1.36-.47,3.54.88,4.51s3.76,0,5.17-.25a50.44,50.44,0,0,1,10.76-.8c1.93.1,1.93-2.9,0-3a44.29,44.29,0,0,0-7.89.36c-2.23.28-4.87,1.15-7.13,1l1.3.75c-.42-.64-.1-3-.17-3.8s-.21-1.89-.38-2.82a32.08,32.08,0,0,0-2.36-7.34c-.77-1.76-3.36-.24-2.59,1.51Z" transform="translate(-43.52 -59.18)"/></svg>